<svg xmlns="http://www.w3.org/2000/svg" viewBox="0 0 1024 1024" width="1024" height="1024">
  <rect width="1024" height="1024" rx="180" ry="180" fill="#2d6a4f"/>
  <g transform="translate(258, 122) scale(1.91)">
    <g transform="translate(0, 408) scale(0.1, -0.1)" fill="#ffffff" stroke="none">
<path d="M0 2040 l0 -2040 140 0 140 0 0 1155 0 1155 48 0 c26 0 52 4 58 8 6
4 17 41 24 82 17 100 44 186 91 288 l38 83 -16 82 c-22 118 -20 283 5 384 78
308 338 515 717 568 99 15 458 21 489 9 20 -8 21 -61 2 -169 -49 -278 -151
-483 -316 -638 -132 -124 -311 -200 -536 -226 -44 -6 -105 -19 -135 -30 -69
-26 -147 -94 -182 -159 -31 -56 -67 -187 -67 -240 l0 -35 78 6 c83 5 105 13
190 71 62 41 93 51 220 66 89 10 186 39 226 66 18 12 18 13 -6 19 -39 10 -80
58 -81 97 l-2 33 85 6 c161 11 189 18 228 55 39 37 51 41 71 22 10 -11 11 -5
6 27 -11 75 59 155 148 170 51 9 63 -4 43 -43 -27 -52 -22 -72 18 -72 18 0 53
9 77 19 24 11 71 25 104 30 33 6 72 14 88 17 24 6 27 4 27 -20 0 -38 -23 -78
-66 -115 l-36 -33 29 -31 c17 -18 46 -57 66 -88 45 -71 82 -110 149 -153 78
-49 82 -56 76 -130 -9 -108 -54 -157 -150 -164 -31 -2 -70 0 -87 6 -24 9 -54
4 -160 -22 -139 -34 -151 -41 -209 -121 -20 -27 -37 -52 -39 -54 -1 -2 -20 12
-42 32 -51 46 -116 79 -211 107 -202 60 -262 139 -182 239 18 23 31 41 30 41
-2 0 -42 -14 -90 -30 -47 -17 -123 -37 -169 -46 -50 -9 -105 -27 -135 -45 -28
-16 -79 -36 -113 -44 -53 -14 -101 -18 -283 -24 l-28 -1 0 -245 c0 -135 2
-245 4 -245 3 0 38 13 79 30 40 16 117 37 169 46 91 16 96 18 114 51 26 50
111 135 166 167 49 29 96 32 90 6 -25 -110 -34 -170 -29 -184 8 -21 27 -12 27
13 0 25 83 68 148 77 64 8 65 4 16 -84 -33 -61 -34 -66 -17 -75 10 -6 52 -43
93 -84 92 -90 141 -116 213 -111 l52 3 7 -80 c9 -107 0 -149 -32 -153 -14 -2
-29 -8 -35 -12 -5 -4 -30 -13 -53 -20 -24 -6 -67 -30 -96 -53 -69 -57 -109
-73 -142 -58 -14 6 -32 11 -40 11 -8 0 -28 10 -45 23 -22 16 -52 24 -107 29
-42 4 -101 10 -129 14 -45 5 -59 2 -97 -20 -25 -14 -56 -26 -71 -26 -29 0 -60
-14 -90 -40 -11 -10 -36 -23 -56 -29 -40 -13 -87 -59 -115 -111 -18 -33 -19
-70 -22 -542 l-3 -508 311 0 310 0 0 35 c0 20 -6 50 -14 68 -7 18 -11 47 -8
66 3 25 -1 38 -22 60 -23 24 -27 36 -24 72 l3 44 -60 30 c-66 33 -96 67 -100
113 -1 17 -14 45 -28 62 -31 36 -33 63 -11 120 15 38 12 69 -4 43 -4 -6 -25
-22 -46 -37 -67 -45 -173 -28 -206 34 -21 38 40 82 144 105 26 5 27 8 14 23
-49 56 -10 152 61 152 14 0 21 6 21 19 0 26 35 68 64 75 14 3 35 2 48 -3 18
-7 29 -4 47 10 31 25 68 24 111 -3 23 -14 48 -21 74 -19 30 2 44 -3 67 -25 16
-15 29 -38 29 -50 0 -21 3 -22 53 -17 67 7 97 -7 97 -45 0 -43 -31 -83 -78
-101 l-43 -17 38 -54 c21 -29 72 -81 113 -115 91 -75 100 -94 75 -172 -32
-103 -114 -158 -199 -135 -24 7 -48 7 -71 1 -34 -10 -35 -12 -29 -44 5 -26 1
-44 -15 -71 -21 -35 -21 -39 -7 -76 9 -21 16 -63 16 -93 l0 -55 43 0 c195 1
405 134 491 312 72 149 70 128 74 780 l3 588 27 6 c264 55 468 163 620 329
219 239 312 541 299 974 -6 206 -24 324 -67 451 -106 307 -338 516 -678 613
-76 22 -85 22 -994 25 l-918 3 0 -2041z"/>
<path d="M1179 3435 c-121 -44 -315 -175 -445 -300 -85 -82 -164 -201 -164
-247 0 -46 16 -52 41 -16 122 175 323 365 578 546 48 34 46 38 -10 17z"/>
<path d="M1830 2551 c-23 -44 27 -78 62 -43 16 16 18 23 9 41 -15 27 -57 28
-71 2z"/>
<path d="M2133 2383 c-18 -7 -16 -38 3 -53 12 -11 18 -11 30 2 13 13 13 17 -3
35 -10 12 -24 19 -30 16z"/>
<path d="M1084 1616 c-9 -23 -1 -48 19 -60 25 -16 52 4 52 40 0 25 -4 29 -33
32 -22 2 -34 -2 -38 -12z"/>
<path d="M940 710 c-28 -15 -31 -19 -14 -20 12 0 27 -7 34 -15 15 -19 50 -19
84 -2 l25 14 -20 21 c-24 27 -62 27 -109 2z"/>
<path d="M1317 523 c-11 -10 24 -43 45 -43 23 0 23 12 0 33 -20 18 -34 21 -45
10z"/>
    </g>
  </g>
</svg>