<svg version="1.1" id="Layer_1" xmlns="http://www.w3.org/2000/svg" xmlns:xlink="http://www.w3.org/1999/xlink" x="0px" y="0px"
	 width="100%" viewBox="0 0 504 490" preserveAspectRatio="true" xml:space="preserve">
<path opacity="1.000000" fill="none" stroke="none" 
	d="
M505.000000,263.000000 
	C505.000000,338.966339 505.000000,414.932709 505.000000,490.949524 
	C337.108032,490.949524 169.216064,490.949524 1.000000,490.949524 
	C1.000000,407.312164 1.000000,323.623932 1.363465,239.424408 
	C3.496797,241.632431 5.138408,244.446716 7.065726,247.049438 
	C10.179311,251.254089 14.821283,252.899872 18.008316,251.541809 
	C18.669626,255.240662 19.314762,258.561768 19.691183,261.872437 
	C19.002243,262.100037 18.582016,262.337982 18.161785,262.575928 
	C18.760601,263.089050 19.359419,263.602142 19.911942,264.454956 
	C18.543770,264.662842 16.969372,264.947266 15.944677,264.325623 
	C11.968357,261.913208 8.166842,259.212646 3.199172,255.880890 
	C2.853233,269.157593 2.705085,280.823822 7.977022,291.663940 
	C12.025937,299.989288 19.501371,304.468536 27.785696,307.913025 
	C32.701794,309.957062 37.411201,312.498169 42.233120,314.825256 
	C42.322163,314.636139 42.823280,313.571808 42.893738,313.422180 
	C45.172543,315.680542 47.462048,317.949524 50.025444,320.434692 
	C51.877045,322.468872 53.454750,324.286804 54.665581,326.062439 
	C48.540176,322.825012 42.915195,319.351562 36.988140,316.507660 
	C30.116907,313.210724 22.980303,310.466797 14.943512,307.051300 
	C14.943512,309.745331 14.743676,311.012177 14.978464,312.192596 
	C15.941067,317.032135 16.872433,321.887756 18.110811,326.660797 
	C23.416912,347.111969 34.883968,362.143127 56.390804,366.701660 
	C65.152611,368.558838 69.226257,374.310089 72.704353,381.039001 
	C75.149094,385.768738 76.431213,391.099396 77.839996,396.093750 
	C73.713013,394.097076 69.921906,386.215698 70.286766,382.951324 
	C66.279869,379.640747 63.009869,376.390564 59.216164,373.956604 
	C55.306210,371.448059 50.886200,369.734497 46.006756,367.337830 
	C46.006756,369.374786 45.700279,371.812225 46.056110,374.148865 
	C48.509796,390.261505 53.399502,397.448639 69.775536,398.968323 
	C72.519966,399.222992 76.289337,399.669830 78.424110,396.197693 
	C84.111214,401.545471 90.067055,404.452606 97.682076,401.306824 
	C97.123245,399.382690 96.655396,397.771820 96.087891,395.817871 
	C102.366066,395.512238 102.482719,401.652893 106.206047,404.196899 
	C108.350159,388.305847 111.495132,373.060486 104.546707,358.014587 
	C99.277885,346.605682 91.484245,337.020355 84.135033,326.473602 
	C75.700264,342.348083 69.910934,357.771179 71.343117,375.231750 
	C71.471451,362.482391 68.290504,350.596588 64.279655,339.016296 
	C66.466255,341.584595 68.294785,344.091125 70.124176,346.596985 
	C81.596840,333.631714 80.491158,303.678009 67.580040,288.391541 
	C66.090866,290.415192 64.603104,292.269135 63.296154,294.242859 
	C58.484245,301.509674 52.463886,308.174988 51.879120,317.563599 
	C51.819309,318.523895 50.428177,319.401276 49.656269,319.888428 
	C47.138531,310.761047 50.746452,303.784485 55.575768,296.913971 
	C65.034615,283.457092 67.644623,268.412231 65.270233,251.667801 
	C53.383911,257.254822 42.515091,263.325592 37.102642,275.627075 
	C35.266811,279.799561 33.470257,284.325684 35.915134,289.170776 
	C36.931595,291.185089 37.285339,293.548950 37.832855,295.780243 
	C38.323128,297.778320 38.665646,299.812622 39.023594,301.584625 
	C33.470917,290.212982 27.902491,278.809082 22.151764,267.031860 
	C21.945507,267.240875 22.617775,266.559601 23.591663,265.725311 
	C25.548624,264.888336 27.203960,264.204376 29.217041,263.372589 
	C29.424286,266.817474 29.513222,270.091461 29.866346,273.336639 
	C30.021048,274.758331 30.715233,276.121368 31.164444,277.511017 
	C32.525345,276.395294 34.251652,275.516571 35.163960,274.109894 
	C36.638260,271.836761 37.087521,268.776825 38.837044,266.827759 
	C43.456665,261.681335 48.665459,257.069519 53.418446,252.035934 
	C66.748970,237.918442 68.339142,220.584518 66.652458,202.431931 
	C66.570526,201.550140 65.837624,200.728851 65.204727,199.477890 
	C63.668697,200.357742 62.285446,201.150085 60.659180,201.829483 
	C59.741066,201.006287 59.065971,200.296005 58.229389,199.415833 
	C71.866943,193.278778 79.074112,183.220108 77.975739,168.137970 
	C84.256729,166.784332 85.446693,162.747421 82.167892,155.859940 
	C78.759720,156.274536 74.904549,155.696838 72.407768,157.272141 
	C67.677238,160.256790 62.484268,163.751022 59.782005,168.376434 
	C56.768898,173.533951 54.766609,180.302383 55.206535,186.152908 
	C55.599918,191.384415 55.848789,196.021103 53.816990,200.823334 
	C53.311253,202.018646 53.462414,203.491898 53.289650,205.033646 
	C50.773540,206.644974 48.003010,208.419220 44.877922,210.224045 
	C42.649357,211.175110 40.775352,212.095596 38.966534,212.665131 
	C42.681217,206.062836 46.951397,200.084259 49.844803,193.500626 
	C55.091988,181.561249 52.990379,168.960785 51.539349,156.523117 
	C79.258827,158.141098 105.590790,141.275681 119.269028,113.245209 
	C103.707748,108.354050 81.546135,108.022835 64.918640,117.695847 
	C63.339344,118.566856 62.008457,119.241547 59.709778,120.406876 
	C63.965981,113.986351 68.546135,109.113098 70.664062,103.337021 
	C73.006355,96.949066 70.428169,90.314072 67.111908,84.134865 
	C66.137253,85.154274 65.546494,85.967552 64.778656,86.545624 
	C55.017052,93.894691 51.698116,103.833084 53.080875,115.636330 
	C53.475880,119.008064 54.027138,122.435692 59.385189,118.733208 
	C58.704491,120.717842 58.403893,122.095108 57.551254,122.843224 
	C50.650227,128.898361 47.862129,136.385849 49.040375,145.486862 
	C49.131138,146.187912 47.742294,147.080505 46.992012,147.524933 
	C44.467819,141.811966 42.071766,136.419632 39.486725,131.119446 
	C38.045773,128.165009 36.378460,128.527969 34.942009,131.243103 
	C31.612123,137.537170 27.928230,143.673920 25.032892,150.162292 
	C16.350002,169.620438 16.054621,188.540115 29.594227,206.277878 
	C31.190624,208.369263 33.897720,210.718582 33.752285,212.783722 
	C33.513134,216.179581 35.253139,215.716644 36.929852,216.252411 
	C35.914452,217.018951 34.737499,217.309265 34.264553,218.049393 
	C29.829878,224.989639 25.515684,232.006851 20.980001,239.345581 
	C19.829426,243.556992 18.865511,247.424622 17.932476,250.859528 
	C16.971674,246.299255 16.547411,241.921997 14.864704,238.098602 
	C11.800125,231.135361 6.022076,227.738083 1.000000,229.000000 
	C1.000000,153.033554 1.000000,77.067116 1.000000,1.050337 
	C168.892242,1.050337 336.784515,1.050337 505.000000,1.050337 
	C505.000000,86.021164 505.000000,171.042725 504.606354,256.539673 
	C503.162415,253.736008 502.112091,250.456955 501.138123,247.416214 
	C494.711121,251.173615 488.422791,254.849945 482.134430,258.526276 
	C481.807617,258.081329 481.480804,257.636383 481.153992,257.191437 
	C481.471344,256.477631 481.788696,255.763794 482.397522,254.885559 
	C495.152191,244.066269 491.764526,230.921494 487.723724,217.508331 
	C492.233521,220.998444 496.114319,224.001770 500.446014,227.354080 
	C501.761017,216.922607 498.743866,211.233475 490.257080,207.742706 
	C485.626190,205.837921 480.769989,204.449417 475.953430,203.039917 
	C473.325745,202.270966 471.375610,201.281067 472.096710,197.872986 
	C472.377289,197.522858 472.489441,197.382751 472.923157,197.440125 
	C478.538177,199.263138 483.831665,200.888626 490.561218,202.955109 
	C488.181244,189.001495 487.020660,176.744797 481.287109,165.479324 
	C475.614807,154.334198 467.724243,145.865967 455.007721,143.177032 
	C448.798462,141.864044 442.495270,140.995163 434.610321,139.647705 
	C436.500519,148.725037 438.150085,156.646805 439.904419,165.071686 
	C437.839203,161.896683 436.049957,159.146027 434.152924,156.229614 
	C426.483826,156.713135 423.716522,173.175842 429.266113,183.155136 
	C428.402405,185.107483 427.671478,187.173843 428.016418,189.041473 
	C428.762726,193.081955 430.033813,197.027969 431.137390,200.999512 
	C434.498413,213.094864 440.246429,223.216980 452.623138,228.357529 
	C458.666138,230.867447 464.422272,234.068024 470.364532,236.983582 
	C470.434784,236.013885 470.492676,235.214737 470.550568,234.415604 
	C472.018127,237.014755 472.206238,239.797180 473.122192,242.314789 
	C474.315796,245.595596 473.340546,249.764206 476.959534,252.490143 
	C477.439880,255.273178 477.900604,257.661194 478.499573,260.765991 
	C477.455841,262.002167 475.785645,263.980286 474.080750,265.568481 
	C473.259064,259.588440 473.196136,253.763077 471.477814,248.475693 
	C469.819244,243.372223 466.867950,238.520035 461.103210,236.437485 
	C455.412811,234.381775 449.843719,231.986725 444.136536,229.982239 
	C441.400421,229.021271 438.468353,228.618164 434.601898,227.726456 
	C438.085449,236.348206 441.017914,243.605988 443.651642,251.034698 
	C436.267365,255.777527 434.955902,260.920929 438.304871,273.099365 
	C441.327698,268.605408 443.977081,264.666626 445.805847,261.947845 
	C445.003937,257.369263 444.424866,254.063065 444.152405,250.938156 
	C447.631592,253.964005 450.804199,256.808594 453.333496,259.076355 
	C447.839111,265.780212 442.700256,271.329315 438.389771,277.460724 
	C429.585632,289.984009 430.116333,304.413940 438.521027,316.131317 
	C440.353546,318.686096 442.050873,321.337891 444.190521,324.508118 
	C444.585114,323.942108 445.203583,322.766693 446.095551,321.860382 
	C446.909637,321.033203 448.020020,320.497528 449.314331,319.890900 
	C450.053619,319.985107 450.478394,320.021759 450.779633,320.407684 
	C448.123444,327.957031 445.905121,335.206421 447.027985,343.274200 
	C446.550018,345.010651 446.210724,346.474609 445.596985,347.656738 
	C445.015411,344.929932 445.329803,342.175537 444.293243,340.093872 
	C439.897247,331.265625 435.123657,322.624329 430.414551,313.954651 
	C429.924408,313.052277 428.947174,312.414490 428.195984,311.653931 
	C427.445648,312.402740 426.508453,313.038910 425.977539,313.919952 
	C423.766663,317.588867 421.728271,321.361389 419.535980,325.041931 
	C410.284760,340.573273 411.529266,356.509216 417.202972,372.679993 
	C425.069611,371.624878 426.279480,365.116974 428.655396,359.603363 
	C428.975739,361.957733 429.317596,364.142456 428.882385,366.159546 
	C428.420319,368.301361 427.220978,370.284119 426.347076,372.328186 
	C432.276337,374.917725 441.814178,372.356781 443.028442,365.749756 
	C444.119781,359.811707 444.870331,353.811035 446.164124,347.899780 
	C447.986664,348.120636 449.638641,348.825348 450.809113,348.348419 
	C457.354309,345.681549 463.992828,343.121277 470.210236,339.796661 
	C485.434723,331.655731 496.384003,308.176514 493.489380,290.910950 
	C487.021881,293.656677 480.532501,296.411682 473.714050,299.246887 
	C468.513489,302.671661 463.641998,306.016235 458.770508,309.360809 
	C458.840393,307.008148 459.754425,305.537476 460.560547,304.009857 
	C463.542419,298.359070 466.835846,292.591217 464.750580,285.969696 
	C462.989746,280.378357 460.373016,275.054504 458.095734,269.628754 
	C457.127563,267.322052 456.058990,265.057526 454.448639,261.462433 
	C457.982788,263.305969 460.072388,264.395966 462.464752,265.684326 
	C464.743469,266.912170 468.007446,267.572968 468.429474,269.047302 
	C469.332428,272.201538 470.808502,275.297272 469.363434,279.262268 
	C467.732727,283.736542 468.105896,288.941101 467.710602,292.817688 
	C471.865845,291.821320 475.635864,290.793243 479.458038,290.024719 
	C489.795380,287.946289 500.793335,281.425598 502.349335,268.591217 
	C502.584808,266.648895 504.084839,264.859894 505.000000,263.000000 
M267.027863,349.296234 
	C272.894867,342.810577 275.397644,334.947968 275.935120,326.446838 
	C276.351624,319.859100 274.767487,319.011200 268.451111,321.682648 
	C269.133087,320.356354 269.476379,318.558350 270.554749,317.784149 
	C275.679077,314.105042 278.705841,307.223602 277.020111,302.451996 
	C273.002411,303.088959 269.002197,303.723175 265.663849,303.826019 
	C267.133514,303.171082 268.570374,302.426147 270.078217,301.875793 
	C279.717163,298.357758 288.700134,293.660339 294.508331,284.913055 
	C299.052399,278.069550 302.915466,270.741119 306.668823,263.416870 
	C309.095367,258.681763 310.778351,253.565552 312.812164,248.576889 
	C302.761536,250.468277 293.210358,252.265686 283.659180,254.063095 
	C283.508667,253.384964 283.358154,252.706833 283.207642,252.028702 
	C287.425262,252.371765 289.556000,245.336060 294.964386,249.676163 
	C295.322144,249.963242 296.234772,249.667953 296.852417,249.504288 
	C300.806366,248.456619 304.750000,247.369980 308.710602,246.292450 
	C307.522888,243.504761 307.929871,242.216751 311.605896,242.928452 
	C320.813751,244.711197 327.038422,240.079330 331.640167,232.763153 
	C332.532257,231.344894 332.330231,229.238510 332.708588,227.002151 
	C338.473572,226.072784 343.313171,222.415817 345.800751,216.144104 
	C346.336365,214.793686 345.335114,212.833710 344.969757,210.742020 
	C356.787079,205.742172 359.514771,201.720001 356.275146,193.109192 
	C353.764557,194.325607 351.235840,195.550812 348.481506,196.885330 
	C348.930206,190.923874 349.345367,185.408356 349.820618,179.094345 
	C333.442749,184.659012 326.802216,195.752396 327.501251,212.064774 
	C327.084442,211.837921 326.667603,211.611084 326.250793,211.384232 
	C326.084259,209.002380 325.917755,206.620544 325.719208,203.780762 
	C320.322662,206.341385 315.015625,208.147705 310.537170,211.178436 
	C305.755066,214.414612 302.155273,219.032974 300.946289,225.086777 
	C300.325012,228.197525 298.671814,229.755020 295.211945,228.150070 
	C294.058746,227.615112 292.199341,227.352234 291.208282,227.918945 
	C284.255432,231.894699 279.607788,237.691589 279.136780,245.928558 
	C278.973083,248.791061 280.062439,251.725220 280.584686,254.655777 
	C251.170868,262.787384 239.145386,297.142792 252.746338,315.591858 
	C253.726807,313.674988 254.242233,311.252655 255.736313,310.110107 
	C257.539124,308.731476 259.028473,304.373596 262.403351,308.778229 
	C257.083344,317.463135 257.332520,319.782257 264.340912,323.261078 
	C264.480377,323.373840 264.619812,323.486572 264.280670,324.105103 
	C261.217773,326.861877 258.191864,329.661743 255.067154,332.346588 
	C254.235046,333.061554 253.100052,333.423981 252.122025,333.158752 
	C254.765945,323.913849 247.396088,312.370544 237.923004,311.288788 
	C236.924164,311.174744 234.821152,312.878662 234.743744,313.858704 
	C234.332687,319.062927 233.597137,324.455963 234.536514,329.492157 
	C235.477020,334.534271 238.070084,339.389404 243.925964,341.577881 
	C243.690994,342.367188 243.456039,343.156494 243.238937,343.885834 
	C246.005798,344.017670 248.418472,344.132629 251.465591,344.277832 
	C250.375107,345.938873 249.798538,346.817078 249.884262,346.686493 
	C252.326248,349.551819 254.229706,351.785248 255.421173,354.312714 
	C249.539536,350.504883 243.657898,346.697052 236.327026,341.950989 
	C235.942474,352.156830 233.024857,359.711792 225.718811,365.121185 
	C230.174637,368.804810 230.475037,371.930908 225.724792,374.880920 
	C224.827530,375.438080 224.205185,376.636810 223.746704,377.668701 
	C221.184433,383.435608 218.711472,389.242188 215.970078,395.585785 
	C230.351013,397.111237 241.763519,393.338440 251.942047,384.980957 
	C251.399612,384.165802 250.964737,383.652527 250.695419,383.063568 
	C250.476959,382.585724 250.457306,382.017029 250.298660,381.239594 
	C263.318146,386.583954 274.466248,394.975800 288.302246,397.292877 
	C295.162659,398.441772 296.025696,398.206848 293.774078,391.939850 
	C290.445953,382.676331 287.801727,372.741577 277.579071,368.098907 
	C274.398071,366.654266 271.160919,365.333313 268.585846,363.835632 
	C269.680664,364.019592 270.804108,364.451141 271.863556,364.328827 
	C273.410156,364.150269 275.710846,364.034973 276.266083,363.071838 
	C277.457550,361.004974 278.957062,357.831787 278.154480,356.149750 
	C276.078339,351.798523 272.544983,348.537933 267.027863,349.296234 
M264.781250,45.154255 
	C274.897308,65.119019 293.603882,69.755348 314.200836,72.995415 
	C311.639343,66.273064 309.671631,60.173077 307.023346,54.384457 
	C303.305542,46.258045 297.484833,40.126755 287.875977,40.155209 
	C280.355347,40.177483 272.831146,41.224926 265.329468,42.015533 
	C264.570648,42.095509 263.956329,43.546566 262.950104,44.695480 
	C262.957672,45.055454 262.965271,45.415424 262.972839,45.775398 
	C263.338715,45.545036 263.704590,45.314674 264.781250,45.154255 
M249.888626,193.581177 
	C249.565964,193.749908 249.243286,193.918640 248.806244,194.688614 
	C248.491089,195.098755 248.175934,195.508896 247.979202,195.366608 
	C245.667465,192.952011 247.863174,190.922104 249.102203,189.621170 
	C256.038696,182.338074 258.447266,174.083252 255.757950,164.306305 
	C255.492920,163.342819 256.146576,161.664612 256.941132,160.942062 
	C266.437592,152.306656 274.291168,143.003036 269.911377,128.868118 
	C268.159912,123.215523 267.024292,117.110466 261.795532,112.741707 
	C258.242676,117.896896 254.376495,122.308487 251.940948,127.403908 
	C249.832275,131.815460 248.202576,137.075623 248.504395,141.824478 
	C248.747742,145.653381 248.735703,148.333618 245.768448,150.903320 
	C244.123581,149.508652 242.615387,148.229858 241.374054,146.385696 
	C243.359650,142.017670 244.845795,137.321228 247.450348,133.360168 
	C251.164246,127.711990 249.404770,122.364067 247.704315,116.938553 
	C247.352051,115.814629 245.480942,115.166740 244.390015,114.358826 
	C236.762619,124.075859 232.299454,133.632370 238.913742,143.303696 
	C237.355469,146.795502 235.902573,148.905960 235.506470,151.198975 
	C234.862640,154.926224 235.163986,158.810455 234.609222,162.560791 
	C233.681900,168.829773 234.738617,174.611877 238.019257,180.753067 
	C237.917236,181.895279 238.103867,183.164078 237.667297,184.159576 
	C234.344238,191.736801 231.041519,199.322311 234.143448,207.795578 
	C235.188156,210.649277 236.732956,213.319885 238.701263,217.438660 
	C240.685379,210.800156 242.150970,205.203552 244.106781,199.783829 
	C244.678070,198.200775 246.645721,197.121613 248.284561,196.572754 
	C247.221878,198.968872 246.008362,201.310852 245.125366,203.771439 
	C242.668427,210.618134 240.215836,217.474258 247.554428,223.215576 
	C248.495544,223.951828 248.599655,225.757904 248.332718,227.006516 
	C245.129608,225.137924 241.923004,223.275269 238.724426,221.398972 
	C235.914154,219.750473 233.991074,219.874008 234.025665,223.777161 
	C234.082275,230.169952 234.141312,236.543106 237.137390,242.483704 
	C237.812943,243.823196 237.768707,245.525726 237.372589,247.250977 
	C235.751480,245.332123 234.130371,243.413284 232.163376,241.085037 
	C231.391159,241.592468 230.212799,242.366760 228.942078,242.311722 
	C227.693436,236.129822 226.444794,229.947922 225.196136,223.766022 
	C224.409485,223.447449 223.622833,223.128876 222.836182,222.810303 
	C221.746368,225.129776 220.656570,227.449265 219.474808,229.964478 
	C219.545654,230.728729 219.737518,232.798233 219.929398,234.867752 
	C217.526917,230.024704 211.403091,226.938583 206.981079,229.501419 
	C206.958939,229.694473 206.936783,229.887527 206.209686,229.616882 
	C203.803696,224.073410 201.951324,218.189377 198.816849,213.094040 
	C196.301010,209.004364 192.230743,205.870895 188.850266,202.313110 
	C188.039276,202.633606 187.228302,202.954086 186.417313,203.274582 
	C185.943832,209.932220 185.583633,216.601257 184.916107,223.239380 
	C184.752090,224.870468 183.585144,226.400696 183.106461,227.452408 
	C182.746429,224.465225 182.157608,221.483398 182.087540,218.489426 
	C182.009735,215.164703 175.502274,212.798309 180.634644,208.719574 
	C180.744095,208.632568 180.258453,207.866653 180.127808,207.395996 
	C179.385941,204.723846 178.575012,202.066330 177.957947,199.364914 
	C175.704193,189.498535 167.053116,182.150330 158.227127,182.685593 
	C159.182541,189.784317 160.375916,196.773666 167.126526,200.867279 
	C160.383575,199.124008 153.812103,197.425079 145.896194,195.378571 
	C151.111420,206.234833 154.114471,216.520920 163.846756,222.237793 
	C169.716324,225.685684 175.767792,228.852921 183.148743,228.506821 
	C182.656509,229.092834 182.102844,230.223679 181.682022,230.176239 
	C178.998245,229.873642 176.343719,229.311569 173.429626,228.790192 
	C174.723495,238.761841 180.236984,241.915482 188.004974,243.048721 
	C187.628998,240.655685 187.241150,238.187012 186.853287,235.718353 
	C187.412766,235.371582 187.972260,235.024811 188.531738,234.678040 
	C187.622711,242.979904 194.732117,243.478577 200.164352,246.917694 
	C196.196259,248.030136 193.633636,248.748566 190.632553,249.589905 
	C193.943100,254.907074 195.707855,260.583527 201.651611,262.924500 
	C202.051468,263.081970 202.375305,263.704132 202.527466,264.176788 
	C204.023193,268.823517 205.435059,273.497406 206.948853,278.138123 
	C209.111618,284.768311 214.204559,288.038544 221.481110,290.717468 
	C219.501144,282.697327 222.060242,274.846741 216.684509,268.290344 
	C216.812149,268.164459 216.939804,268.038544 217.606491,267.492371 
	C216.900879,264.188049 216.195282,260.883728 215.313446,256.754120 
	C217.190369,258.887482 218.384094,260.244293 220.036560,262.122528 
	C220.952911,254.546906 221.728912,248.131622 222.605652,240.883499 
	C224.020645,242.844666 225.004517,244.208328 225.840576,245.367111 
	C226.968430,244.569366 228.055191,243.800705 228.794495,243.670166 
	C228.100662,245.339920 227.475159,247.042038 226.702271,248.674362 
	C220.290512,262.216187 218.641556,276.050995 223.976105,290.365204 
	C227.397598,299.546143 235.116043,303.805298 244.048248,308.654877 
	C243.589340,305.056732 243.620209,302.596954 242.912369,300.372223 
	C241.807892,296.900879 241.108398,294.687042 243.684052,290.563324 
	C250.728607,279.284790 251.959366,267.003754 243.186783,255.385513 
	C241.922226,253.710739 241.003937,251.774490 240.628326,250.048248 
	C242.041580,251.155029 243.507797,252.201111 244.858444,253.379654 
	C249.425446,257.364746 253.951492,261.396790 258.606232,265.510803 
	C263.973053,257.764587 258.873871,238.945938 253.056412,233.346588 
	C251.284576,231.641174 250.311462,229.105972 249.698761,226.739426 
	C252.480423,229.437088 255.262070,232.134750 257.782501,234.579071 
	C259.304932,231.793350 261.007263,228.380707 262.980560,225.132690 
	C266.556427,219.246933 271.016205,213.783127 273.805389,207.559799 
	C278.803101,196.408722 274.503387,185.276016 272.002838,174.287643 
	C271.791199,173.357651 269.990417,172.789291 269.051483,171.306595 
	C273.265503,166.019135 272.432770,160.298523 270.438110,154.176529 
	C266.690094,157.377228 263.326050,160.694107 260.591400,164.467178 
	C259.175690,166.420471 258.342468,169.168762 258.280823,171.584274 
	C258.246429,172.932449 260.165588,174.553925 261.546509,175.601196 
	C262.075226,176.002182 263.650848,175.322281 264.583344,174.824066 
	C266.142517,173.991104 267.568268,172.908493 269.225281,172.652054 
	C266.929718,174.886734 264.483612,176.988602 262.370483,179.384186 
	C258.173370,184.142349 254.159668,189.062317 249.888626,193.581177 
M119.346352,411.274292 
	C112.838852,409.184174 106.434250,406.621796 99.786919,405.173431 
	C95.502800,404.239960 90.850937,405.129303 86.385048,404.856018 
	C82.140839,404.596283 77.924133,403.887085 73.460693,403.347107 
	C79.713852,416.634644 87.891502,426.594391 100.659386,432.346069 
	C114.097580,438.399658 126.202896,432.523071 139.112030,429.238007 
	C135.951859,425.527100 133.188248,422.281860 130.902954,418.639984 
	C131.461777,418.103271 132.482956,417.580872 132.500061,417.027435 
	C132.577789,414.514435 132.120544,411.970825 132.336456,409.479919 
	C132.576019,406.716553 134.044632,403.919922 133.751282,401.273804 
	C132.334732,388.495636 126.182022,378.060486 116.551659,368.736145 
	C115.318794,373.232391 114.082527,377.237518 113.142174,381.310913 
	C112.186501,385.450653 110.538788,389.758301 110.952942,393.812744 
	C111.637558,400.515167 115.534821,406.091583 119.346352,411.274292 
M170.572342,451.674316 
	C174.988693,451.451874 179.405045,451.229431 183.987686,451.721710 
	C174.695312,457.018127 165.402954,462.314514 156.110580,467.610901 
	C156.161987,468.188934 156.213409,468.766937 156.264832,469.344971 
	C160.426346,471.368805 164.671371,473.238708 168.735092,475.442871 
	C187.277588,485.500366 205.949326,483.935638 221.796341,469.716278 
	C227.003784,465.043732 232.748871,461.927734 240.105133,461.999329 
	C244.686996,462.043945 249.279022,461.044220 254.332047,460.459290 
	C253.326340,459.089539 252.573242,458.063812 252.550232,456.703888 
	C256.077576,458.903961 259.604950,461.104034 263.132294,463.304077 
	C262.969604,464.003052 262.806946,464.702026 262.644287,465.401001 
	C254.372498,465.255737 246.214325,461.379364 237.754700,464.717377 
	C229.360626,468.029510 223.945114,474.397156 216.855316,480.778320 
	C223.241196,482.917328 228.558792,485.332520 234.135986,486.438293 
	C246.824753,488.954041 257.711090,485.327850 265.813507,474.960602 
	C267.016907,473.420776 267.014709,470.895416 267.413696,468.796234 
	C267.535645,468.154480 267.134369,467.413300 266.972687,466.717651 
	C267.706604,466.731171 268.664948,466.448456 269.137665,466.806641 
	C272.033325,469.000732 274.731079,471.466431 277.707367,473.535797 
	C278.390747,474.010925 279.905670,473.290039 281.706451,473.052032 
	C283.158691,473.251984 284.677338,473.244781 286.052307,473.685669 
	C294.598572,476.426147 302.834473,475.684418 312.089233,471.081604 
	C312.309387,475.652283 312.501312,479.636597 312.687500,483.501923 
	C319.517548,481.152435 325.641479,479.116913 331.716217,476.943939 
	C358.302490,467.433899 374.067474,448.347748 379.895752,421.119324 
	C382.545135,408.742218 383.960968,396.090881 385.646698,383.525055 
	C386.049744,380.520996 385.295227,377.361664 385.073120,374.273743 
	C384.538544,374.259705 384.003967,374.245667 383.469391,374.231598 
	C382.974274,375.544373 382.642517,376.950745 381.953674,378.152435 
	C379.817017,381.879730 379.057220,385.870422 374.839111,389.035645 
	C368.445343,393.833435 361.509766,396.491577 354.304871,399.013489 
	C336.879822,405.112762 319.697357,411.535492 309.357330,427.842651 
	C307.275604,426.204254 305.622345,423.964844 303.536377,423.437714 
	C297.339417,421.871765 291.405090,423.709747 285.821198,426.416870 
	C285.294922,426.671997 285.118805,429.253021 285.717590,429.958710 
	C288.999786,433.826904 295.598114,434.896637 300.379517,432.880554 
	C302.268372,432.084106 304.361298,431.771576 306.361298,431.238708 
	C306.584351,431.689575 306.807404,432.140472 307.030457,432.591339 
	C305.299835,434.598724 303.569244,436.606079 301.252502,439.293365 
	C301.245270,439.224121 301.368530,440.404480 301.489594,441.563965 
	C295.470856,438.571686 289.760193,435.732605 283.593811,432.335724 
	C266.981842,425.912231 250.185486,423.204559 231.607285,429.484711 
	C236.632263,436.239655 241.047379,442.137390 245.418945,448.067169 
	C247.629074,451.065033 249.760437,454.120941 251.122528,457.029114 
	C245.156998,456.354370 239.194336,455.653046 233.225189,455.011902 
	C226.593338,454.299530 219.400085,455.016815 213.459488,452.616455 
	C205.847397,449.540680 198.680862,448.892975 190.927536,450.316803 
	C188.548874,450.753632 186.108978,450.856995 184.185501,450.529907 
	C185.805939,449.634430 187.426376,448.738953 189.278229,447.715576 
	C185.679245,445.159302 182.555527,442.940582 179.431808,440.721893 
	C179.696121,440.276337 179.960449,439.830811 180.224762,439.385284 
	C186.578415,442.269806 192.932068,445.154327 199.285706,448.038849 
	C199.726654,446.155518 199.644562,445.476593 199.304123,444.972015 
	C195.174774,438.851807 190.407639,433.074463 186.977509,426.588593 
	C180.299622,413.961670 170.428802,405.495148 156.600601,400.339722 
	C150.976425,398.237030 145.352249,396.134308 138.715302,393.652985 
	C140.712341,414.240173 143.493454,433.061615 159.973267,446.751007 
	C152.455765,444.417328 145.502243,440.821991 138.113083,439.136841 
	C130.279358,437.350311 122.240654,438.725861 114.660408,442.119995 
	C124.282875,459.522888 144.130127,474.064941 165.448578,454.345581 
	C165.284821,453.443054 165.117584,452.644104 164.999680,451.837891 
	C164.875076,450.985992 164.797455,450.127197 164.703491,449.307861 
	C166.618408,449.966553 168.288452,450.541016 170.572342,451.674316 
M397.709442,384.547058 
	C390.095886,389.834747 384.702026,401.308105 386.900970,406.775085 
	C392.894196,407.609131 398.684204,408.279877 404.426514,409.236816 
	C433.625854,414.102661 447.664795,399.315308 456.781097,377.617676 
	C455.993408,377.160278 454.721710,376.042358 454.375366,376.278931 
	C450.544495,378.896027 446.927948,376.183197 443.233612,376.095673 
	C435.215302,375.905670 427.121735,375.330566 419.190582,376.164642 
	C412.995728,376.816040 406.999207,379.353790 401.059418,380.366302 
	C410.341248,371.194092 412.989319,361.155151 407.915161,354.375854 
	C395.439636,362.849579 394.683167,363.000244 391.990936,375.257904 
	C390.909393,380.182129 393.305908,383.514435 397.709442,384.547058 
M93.327003,105.277481 
	C93.459686,105.397865 93.592377,105.518242 93.719559,106.224174 
	C96.755363,108.057480 99.736656,106.989182 102.947006,106.552956 
	C108.199173,105.839264 113.589035,106.129684 118.921219,106.015739 
	C135.571625,105.659904 147.074448,95.342224 159.505814,85.596268 
	C158.259720,84.596550 157.614548,83.693214 156.789505,83.477394 
	C149.475693,81.564140 142.171432,79.580399 134.784119,77.990181 
	C123.603867,75.583488 111.110680,84.380219 106.748108,93.810486 
	C105.117836,97.334534 102.624184,101.796547 96.344559,102.975616 
	C97.718109,100.408325 98.430565,98.824989 99.362411,97.383476 
	C101.880524,93.488113 104.470482,89.638527 107.074104,85.799370 
	C108.759987,83.313454 110.519966,80.877777 112.861900,78.153366 
	C118.894402,76.944214 124.946381,75.823685 130.954498,74.503571 
	C138.532318,72.838570 145.794830,72.839760 153.011703,76.440361 
	C170.805801,85.318085 182.063416,79.917191 196.356094,67.616310 
	C198.189621,66.038277 199.504211,63.857254 201.329407,62.630692 
	C209.218109,67.229324 215.227631,66.486778 219.480301,60.259014 
	C214.654587,55.953064 208.707123,57.242832 203.308502,56.299763 
	C204.620865,53.993069 205.933243,51.686378 207.820480,48.369270 
	C200.426758,47.123039 193.291946,42.685932 184.879669,46.043987 
	C184.724442,42.546951 188.161728,40.133999 192.153473,39.894062 
	C201.054108,39.359051 207.579803,43.957287 213.162262,49.849354 
	C219.211151,56.233711 226.589661,60.213997 234.683624,62.636822 
	C245.834457,65.974670 257.309296,65.883614 270.546967,63.638050 
	C264.879364,54.914280 260.273071,46.603920 254.481293,39.223942 
	C247.538925,30.377916 237.555679,25.264956 227.431961,20.807188 
	C218.371689,16.817682 208.125473,19.463028 202.273300,26.330763 
	C202.153091,26.197981 202.032898,26.065199 202.035126,25.219194 
	C205.213715,18.348267 208.392303,11.477337 211.754761,4.208989 
	C205.544571,6.303071 199.908112,8.085361 194.357193,10.102983 
	C185.856247,13.192854 177.030960,15.696838 169.032745,19.794987 
	C155.397583,26.781439 148.961609,39.658432 145.385605,53.757290 
	C143.330612,61.859406 138.219574,66.483307 131.381683,69.554375 
	C128.475586,70.859581 124.325554,73.727806 121.469238,68.592728 
	C121.359856,68.396080 119.022385,68.867630 118.456596,69.596870 
	C116.244072,72.448524 114.326538,75.529060 111.692436,77.829247 
	C111.555817,76.388702 111.152077,74.915092 111.325623,73.512932 
	C112.512001,63.927002 113.819588,54.356068 115.088097,44.780300 
	C111.009964,46.186237 108.398277,47.982433 105.711739,49.658642 
	C97.914513,54.523552 89.837761,58.786301 83.936409,66.378616 
	C74.728638,78.224747 73.917908,90.980827 78.090736,104.645294 
	C78.848251,107.125877 80.376549,108.457809 83.383202,107.393204 
	C86.470627,106.300003 89.739838,105.720215 93.327003,105.277481 
M355.302124,58.153408 
	C355.038727,59.102478 354.465759,60.086292 354.567657,60.994366 
	C354.933472,64.253998 355.384827,67.518318 356.066345,70.725090 
	C357.288239,76.474358 357.991333,82.471581 360.178497,87.849815 
	C364.961304,99.610764 373.613220,108.372612 383.936981,115.579460 
	C386.363617,117.273438 388.547821,119.314613 391.599457,121.815536 
	C392.078613,116.677368 392.506592,112.966461 392.755798,109.243591 
	C393.390778,99.757462 393.292725,90.468170 387.724121,82.024666 
	C385.264648,78.295395 383.641632,74.014458 382.150177,70.384109 
	C382.923004,70.890411 383.863129,71.252403 384.443329,71.924889 
	C391.908417,80.577591 398.364197,90.311012 409.542084,94.926933 
	C410.668030,95.391891 411.587189,96.466133 412.730438,96.761261 
	C417.020447,97.868713 421.320679,99.202690 425.697937,99.637733 
	C430.973053,100.162018 436.333862,99.970642 441.649689,99.816925 
	C442.724548,99.785843 444.168854,98.757034 444.690186,97.784698 
	C445.095886,97.027916 444.525787,94.777473 444.057861,94.672791 
	C439.343903,93.618202 439.005920,89.061272 437.077484,85.981766 
	C427.286255,70.346748 414.493103,60.474411 394.914551,63.049431 
	C390.464722,63.634686 386.060730,64.762367 381.454681,61.015514 
	C387.077911,60.080009 392.119507,59.241268 398.278412,58.216644 
	C396.506866,56.073845 395.413849,54.403408 393.986694,53.098427 
	C391.060272,50.422493 387.624908,48.241749 384.981506,45.328651 
	C374.942352,34.265259 360.136597,30.748383 346.219452,36.264339 
	C343.121246,37.492287 339.792328,38.138035 336.686981,39.018562 
	C335.990753,37.705742 335.434570,36.656990 334.780731,35.424080 
	C340.913910,32.885479 347.554230,31.063749 349.773895,23.614870 
	C347.398621,23.082897 345.181305,22.929842 343.257324,22.098164 
	C332.849823,17.599361 324.331421,21.276882 316.326263,27.880619 
	C313.537842,30.180895 314.379272,31.793526 317.106232,32.851082 
	C320.002197,33.974167 323.067657,34.660275 326.059082,35.537205 
	C317.611420,36.292194 308.706268,33.418247 299.083771,38.279396 
	C302.421783,39.082726 304.432404,39.486256 306.389282,40.069950 
	C307.437012,40.382469 308.959991,40.756916 309.297363,41.528217 
	C311.549377,46.676338 313.537323,51.939880 315.614990,57.164356 
	C319.625702,67.249672 324.293976,76.823204 334.165070,82.689949 
	C340.016052,86.167397 345.550171,90.270233 353.121399,91.816460 
	C352.412689,72.474533 348.874420,55.407230 331.338867,44.212452 
	C334.812073,44.510239 338.399780,44.932301 341.119476,46.694199 
	C346.351959,50.083950 351.093079,54.232243 355.302124,58.153408 
M406.476044,141.958496 
	C411.514557,150.222229 416.367432,158.633011 424.204193,165.772934 
	C424.854767,162.979324 425.213989,161.379898 425.600403,159.787048 
	C427.490479,151.995941 434.046906,146.030563 434.236816,137.545898 
	C434.294556,134.965088 435.173462,132.366974 434.995941,129.824310 
	C434.665192,125.086906 433.835358,120.384354 433.213257,115.667297 
	C433.606995,115.549911 434.000732,115.432518 434.394440,115.315125 
	C435.261353,117.383865 436.460663,119.379074 436.937408,121.534134 
	C438.945404,130.610504 444.009918,136.723450 453.171478,139.148193 
	C457.450592,140.280731 461.703430,141.516251 465.998932,142.581070 
	C467.266907,142.895386 469.167328,143.344513 469.825531,142.723083 
	C470.575287,142.015213 470.793610,139.942688 470.319580,138.872070 
	C467.514099,132.535751 464.920197,126.020248 461.285370,120.167267 
	C458.934235,116.381386 455.368744,113.640808 450.145447,112.641930 
	C441.514954,110.991501 432.559906,110.151993 425.228363,103.667816 
	C421.950043,100.768410 416.292755,99.235794 411.801941,99.403854 
	C407.341095,99.570801 403.942139,99.030327 400.661011,95.335800 
	C397.321533,111.819084 398.312195,126.965286 406.476044,141.958496 
M261.505951,24.985386 
	C259.228516,28.046818 256.951080,31.108250 253.899048,35.210915 
	C259.812805,35.716602 264.408173,35.344566 268.487793,36.620995 
	C276.465790,39.117157 284.168091,37.534901 291.985382,36.514034 
	C307.722107,34.458958 315.784821,20.481050 329.435486,13.405396 
	C327.573059,12.637250 326.886597,12.232855 326.146790,12.068123 
	C320.052338,10.711087 313.838257,9.769473 307.867249,8.002863 
	C290.061798,2.734828 272.123413,9.035419 261.505951,24.985386 
M218.150864,452.575562 
	C225.220200,454.596130 231.789124,452.254456 238.316727,450.062836 
	C238.991257,449.836334 239.785385,447.419098 239.405899,446.976013 
	C231.655472,437.926727 225.331345,427.177704 212.614166,423.866058 
	C206.336319,422.231232 200.087982,420.482971 193.051071,418.575958 
	C196.977936,433.836700 200.311447,448.075623 218.150864,452.575562 
M383.939636,442.986511 
	C403.870605,445.037445 416.388977,429.516479 420.362854,413.201477 
	C407.891968,412.439178 395.831543,413.258911 387.165161,423.569366 
	C382.543274,429.068115 377.939392,434.964172 375.879913,442.027557 
	C378.941895,442.425781 381.004089,442.693970 383.939636,442.986511 
M144.054077,28.512424 
	C141.507004,29.681034 139.018600,31.005180 136.402939,31.992008 
	C123.343681,36.918953 114.519417,49.193546 121.910477,64.549828 
	C123.767914,63.601494 125.679604,62.745213 127.473083,61.688351 
	C134.038696,57.819374 140.644592,53.886547 143.331604,46.143875 
	C144.943649,41.498749 146.089310,36.693359 147.513412,31.980797 
	C148.290161,29.410442 147.454208,28.162849 144.054077,28.512424 
M254.550644,20.718756 
	C259.865570,17.312662 266.197174,15.039175 268.379791,9.057304 
	C251.938354,0.503154 236.627472,0.119311 223.945831,15.723619 
	C233.238983,20.803699 243.345947,21.591503 254.550644,20.718756 
M14.441178,229.947098 
	C16.225668,232.071976 18.010157,234.196854 20.601566,237.282562 
	C21.662300,231.981888 22.466740,227.548019 23.445217,223.152908 
	C25.991304,211.716370 21.219347,202.428650 14.690156,193.763840 
	C13.470356,192.145050 10.976107,190.694534 9.607692,193.960556 
	C6.469035,201.451706 3.131853,209.164688 6.405457,217.320343 
	C8.151960,221.671478 11.391191,225.423416 14.441178,229.947098 
M450.469574,358.138794 
	C448.819641,362.711426 447.169678,367.284088 445.515961,371.867218 
	C459.885010,376.545776 475.394348,362.785156 474.330139,344.549622 
	C454.558319,352.096588 454.558319,352.096588 450.469574,358.138794 
M261.057983,93.602066 
	C258.811340,88.053513 256.564667,82.504959 253.804657,75.688606 
	C249.181061,82.335464 245.656601,88.369682 246.262802,95.006256 
	C246.986465,102.928612 249.640747,110.674606 251.708984,119.573868 
	C257.520844,111.453758 264.314240,104.890930 261.057983,93.602066 
M278.919617,233.621658 
	C277.384460,229.202225 275.849274,224.782806 274.303711,220.333420 
	C262.960571,226.703415 255.087311,238.805893 265.929016,255.273895 
	C271.986084,249.278412 277.438354,243.147400 278.919617,233.621658 
M154.341080,195.668060 
	C159.031601,195.886841 156.728287,192.094254 156.803818,190.500092 
	C157.362183,178.715210 145.986740,169.741135 134.593201,168.183441 
	C133.259903,178.943909 142.296188,191.750702 154.341080,195.668060 
M289.861298,476.834656 
	C279.677094,473.810760 271.868713,476.164246 266.370361,483.914917 
	C272.752045,490.055573 282.723450,490.726288 292.297333,484.799805 
	C294.493958,483.440063 296.146881,481.201996 298.049988,479.368134 
	C295.598938,478.559357 293.147919,477.750580 289.861298,476.834656 
M358.104584,173.495789 
	C351.029572,177.750839 350.322723,184.355194 351.286285,191.649460 
	C365.045898,188.961349 373.278229,179.325821 371.129822,168.140656 
	C366.968750,169.812210 362.861206,171.462280 358.104584,173.495789 
M253.325439,323.605560 
	C253.336700,323.303223 253.347946,323.000916 253.359207,322.698578 
	C253.226135,322.925049 253.093063,323.151520 253.325439,323.605560 
z"/>
<path fill="#2D6A4F" opacity="1.000000" stroke="none" 
	d="
M474.115417,265.958435 
	C475.785645,263.980286 477.455841,262.002167 478.499573,260.765991 
	C477.900604,257.661194 477.439880,255.273178 477.245300,252.403076 
	C479.042938,252.963974 480.574493,254.006973 482.106049,255.049988 
	C481.788696,255.763794 481.471344,256.477631 481.153992,257.191437 
	C481.480804,257.636383 481.807617,258.081329 482.134430,258.526276 
	C488.422791,254.849945 494.711121,251.173615 501.138123,247.416214 
	C502.112091,250.456955 503.162415,253.736008 504.606354,257.007507 
	C505.000000,258.714355 505.000000,260.428711 505.000000,262.571533 
	C504.084839,264.859894 502.584808,266.648895 502.349335,268.591217 
	C500.793335,281.425598 489.795380,287.946289 479.458038,290.024719 
	C475.635864,290.793243 471.865845,291.821320 467.710602,292.817688 
	C468.105896,288.941101 467.732727,283.736542 469.363434,279.262268 
	C470.808502,275.297272 469.332428,272.201538 468.429474,269.047302 
	C468.007446,267.572968 464.743469,266.912170 462.795959,265.501129 
	C466.588043,265.399200 470.351746,265.678833 474.115417,265.958435 
z"/>
<path fill="#2D6A4F" opacity="1.000000" stroke="none" 
	d="
M1.000000,229.454102 
	C6.022076,227.738083 11.800125,231.135361 14.864704,238.098602 
	C16.547411,241.921997 16.971674,246.299255 17.951530,250.824921 
	C17.939701,251.223083 17.992142,251.164032 17.992142,251.164032 
	C14.821283,252.899872 10.179311,251.254089 7.065726,247.049438 
	C5.138408,244.446716 3.496797,241.632431 1.363465,238.956558 
	C1.000000,235.969406 1.000000,232.938812 1.000000,229.454102 
z"/>
<path fill="#2D6A4F" opacity="1.000000" stroke="none" 
	d="
M284.049530,432.893494 
	C289.760193,435.732605 295.470856,438.571686 301.489594,441.563965 
	C301.368530,440.404480 301.245270,439.224121 301.252502,439.293365 
	C303.569244,436.606079 305.299835,434.598724 307.030457,432.591339 
	C306.807404,432.140472 306.584351,431.689575 306.361298,431.238708 
	C304.361298,431.771576 302.268372,432.084106 300.379517,432.880554 
	C295.598114,434.896637 288.999786,433.826904 285.717590,429.958710 
	C285.118805,429.253021 285.294922,426.671997 285.821198,426.416870 
	C291.405090,423.709747 297.339417,421.871765 303.536377,423.437714 
	C305.622345,423.964844 307.275604,426.204254 309.357330,427.842651 
	C319.697357,411.535492 336.879822,405.112762 354.304871,399.013489 
	C361.509766,396.491577 368.445343,393.833435 374.839111,389.035645 
	C379.057220,385.870422 379.817017,381.879730 381.953674,378.152435 
	C382.642517,376.950745 382.974274,375.544373 383.469391,374.231598 
	C384.003967,374.245667 384.538544,374.259705 385.073120,374.273743 
	C385.295227,377.361664 386.049744,380.520996 385.646698,383.525055 
	C383.960968,396.090881 382.545135,408.742218 379.895752,421.119324 
	C374.067474,448.347748 358.302490,467.433899 331.716217,476.943939 
	C325.641479,479.116913 319.517548,481.152435 312.687500,483.501923 
	C312.501312,479.636597 312.309387,475.652283 312.089233,471.081604 
	C302.834473,475.684418 294.598572,476.426147 286.052307,473.685669 
	C284.677338,473.244781 283.158691,473.251984 281.241699,472.752747 
	C277.765869,469.495667 275.098083,466.042969 271.679932,463.671967 
	C260.978943,456.249298 249.316177,450.169067 242.689407,437.965576 
	C239.780136,432.608002 239.848984,430.487030 246.178314,430.554840 
	C255.896851,430.658997 265.596619,432.134064 275.314697,432.895294 
	C278.208496,433.121979 281.136963,432.906403 284.049530,432.893494 
M373.858826,392.760529 
	C371.584167,397.606079 369.309509,402.451599 367.034851,407.297119 
	C367.736328,407.596466 368.437836,407.895813 369.139313,408.195160 
	C371.121948,403.152649 373.104553,398.110107 375.498291,392.826599 
	C375.512024,392.405426 375.525757,391.984283 375.539490,391.563080 
	C375.148621,391.798767 374.757751,392.034485 373.858826,392.760529 
M359.007233,421.490814 
	C360.347839,419.817230 361.845947,418.240662 362.962524,416.429016 
	C363.519867,415.524811 363.379700,414.190643 363.555023,413.050964 
	C362.615936,413.573029 361.495575,413.914520 360.766876,414.646149 
	C355.645691,419.787750 351.490875,425.665741 345.093628,429.798035 
	C333.563080,437.246124 322.056671,443.841583 307.730530,443.039490 
	C306.867981,442.991180 305.982117,443.358856 304.246368,443.704315 
	C307.091339,445.481476 309.148682,446.774719 311.216187,448.051422 
	C311.637360,448.311462 312.073486,448.595398 312.542267,448.722931 
	C318.678162,450.392700 319.009399,451.798706 315.276581,457.048920 
	C314.329254,458.381348 314.728973,460.671478 314.509766,462.521576 
	C315.063660,462.626007 315.617584,462.730438 316.171478,462.834900 
	C316.995667,461.474274 317.974701,460.182800 318.618347,458.741547 
	C322.177734,450.771332 328.052185,445.062317 335.169952,440.111908 
	C343.244385,434.496185 350.753601,428.067719 359.007233,421.490814 
z"/>
<path fill="#2D6A4F" opacity="1.000000" stroke="none" 
	d="
M112.299362,78.524536 
	C114.326538,75.529060 116.244072,72.448524 118.456596,69.596870 
	C119.022385,68.867630 121.359856,68.396080 121.469238,68.592728 
	C124.325554,73.727806 128.475586,70.859581 131.381683,69.554375 
	C138.219574,66.483307 143.330612,61.859406 145.385605,53.757290 
	C148.961609,39.658432 155.397583,26.781439 169.032745,19.794987 
	C177.030960,15.696838 185.856247,13.192854 194.357193,10.102983 
	C199.908112,8.085361 205.544571,6.303071 211.754761,4.208989 
	C208.392303,11.477337 205.213715,18.348267 201.768372,25.696321 
	C201.487930,26.594624 201.474243,27.015800 201.460556,27.436977 
	C201.851425,27.201241 202.242279,26.965506 202.633148,26.729771 
	C208.125473,19.463028 218.371689,16.817682 227.431961,20.807188 
	C237.555679,25.264956 247.538925,30.377916 254.481293,39.223942 
	C260.273071,46.603920 264.879364,54.914280 270.546967,63.638050 
	C257.309296,65.883614 245.834457,65.974670 234.683624,62.636822 
	C226.589661,60.213997 219.211151,56.233711 213.162262,49.849354 
	C207.579803,43.957287 201.054108,39.359051 192.153473,39.894062 
	C188.161728,40.133999 184.724442,42.546951 184.879669,46.043987 
	C193.291946,42.685932 200.426758,47.123039 207.820480,48.369270 
	C205.933243,51.686378 204.620865,53.993069 203.051270,56.887711 
	C202.515900,58.022736 202.237778,58.569809 201.659607,59.298004 
	C201.233093,60.346989 201.106613,61.214848 200.999908,62.050926 
	C201.019684,62.019142 201.059189,61.955559 201.059204,61.955566 
	C199.504211,63.857254 198.189621,66.038277 196.356094,67.616310 
	C182.063416,79.917191 170.805801,85.318085 153.011703,76.440361 
	C145.794830,72.839760 138.532318,72.838570 130.954498,74.503571 
	C124.946381,75.823685 118.894402,76.944214 112.566330,78.313293 
	C112.270767,78.473213 112.299362,78.524529 112.299362,78.524536 
M195.823959,35.951061 
	C198.105377,35.340191 200.386795,34.729321 202.550797,34.149895 
	C201.592163,32.387440 200.894226,31.104298 199.821823,29.132660 
	C197.762131,31.445375 196.011215,33.411388 193.819412,35.758095 
	C193.123611,36.596478 192.427826,37.434860 191.267563,38.832893 
	C193.779922,38.648151 196.860809,40.464939 195.823959,35.951061 
M157.716110,56.114075 
	C153.361191,60.119419 149.006271,64.124763 143.892517,68.828033 
	C147.612503,68.072517 147.274094,67.683289 153.112045,62.607533 
	C158.336472,58.065197 164.360535,54.422070 170.158890,50.573704 
	C171.748810,49.518467 173.795349,49.151188 175.632355,48.468216 
	C175.457062,47.884117 175.281754,47.300014 175.106461,46.715916 
	C172.740570,47.338009 170.093826,47.487091 168.071564,48.687893 
	C164.637878,50.726761 161.597778,53.428486 157.716110,56.114075 
z"/>
<path fill="#2D6A4F" opacity="1.000000" stroke="none" 
	d="
M482.397522,254.885559 
	C480.574493,254.006973 479.042938,252.963974 477.225647,252.008026 
	C473.340546,249.764206 474.315796,245.595596 473.122192,242.314789 
	C472.206238,239.797180 472.018127,237.014755 470.550568,234.415604 
	C470.492676,235.214737 470.434784,236.013885 470.364532,236.983582 
	C464.422272,234.068024 458.666138,230.867447 452.623138,228.357529 
	C440.246429,223.216980 434.498413,213.094864 431.137390,200.999512 
	C430.033813,197.027969 428.762726,193.081955 428.016418,189.041473 
	C427.671478,187.173843 428.402405,185.107483 429.266113,183.155136 
	C423.716522,173.175842 426.483826,156.713135 434.152924,156.229614 
	C436.049957,159.146027 437.839203,161.896683 439.904419,165.071686 
	C438.150085,156.646805 436.500519,148.725037 434.610321,139.647705 
	C442.495270,140.995163 448.798462,141.864044 455.007721,143.177032 
	C467.724243,145.865967 475.614807,154.334198 481.287109,165.479324 
	C487.020660,176.744797 488.181244,189.001495 490.561218,202.955109 
	C483.831665,200.888626 478.538177,199.263138 472.695007,197.202209 
	C459.064941,190.045486 448.223053,180.926132 441.464539,167.337738 
	C441.313782,174.371475 444.214539,181.491547 436.937317,187.270325 
	C448.778503,190.894302 460.588745,194.620193 467.969513,203.503342 
	C469.446136,201.481522 470.687195,199.782257 471.928253,198.082993 
	C471.375610,201.281067 473.325745,202.270966 475.953430,203.039917 
	C480.769989,204.449417 485.626190,205.837921 490.257080,207.742706 
	C498.743866,211.233475 501.761017,216.922607 500.446014,227.354080 
	C496.114319,224.001770 492.233521,220.998444 487.723724,217.508331 
	C491.764526,230.921494 495.152191,244.066269 482.397522,254.885559 
M473.602417,209.133072 
	C472.866852,209.160568 472.131256,209.188049 471.395691,209.215546 
	C472.556091,213.803192 473.716522,218.390823 474.975739,223.369110 
	C478.967316,213.552521 478.967316,213.552521 473.602417,209.133072 
z"/>
<path fill="#2D6A4F" opacity="1.000000" stroke="none" 
	d="
M262.542206,308.018005 
	C259.028473,304.373596 257.539124,308.731476 255.736313,310.110107 
	C254.242233,311.252655 253.726807,313.674988 252.746338,315.591858 
	C239.145386,297.142792 251.170868,262.787384 280.584686,254.655777 
	C280.062439,251.725220 278.973083,248.791061 279.136780,245.928558 
	C279.607788,237.691589 284.255432,231.894699 291.208282,227.918945 
	C292.199341,227.352234 294.058746,227.615112 295.211945,228.150070 
	C298.671814,229.755020 300.325012,228.197525 300.946289,225.086777 
	C302.155273,219.032974 305.755066,214.414612 310.537170,211.178436 
	C315.015625,208.147705 320.322662,206.341385 325.719208,203.780762 
	C325.917755,206.620544 326.084259,209.002380 326.250793,211.384232 
	C326.667603,211.611084 327.084442,211.837921 327.501251,212.064774 
	C326.802216,195.752396 333.442749,184.659012 349.820618,179.094345 
	C349.345367,185.408356 348.930206,190.923874 348.481506,196.885330 
	C351.235840,195.550812 353.764557,194.325607 356.275146,193.109192 
	C359.514771,201.720001 356.787079,205.742172 344.969757,210.742020 
	C345.335114,212.833710 346.336365,214.793686 345.800751,216.144104 
	C343.313171,222.415817 338.473572,226.072784 332.708588,227.002151 
	C332.330231,229.238510 332.532257,231.344894 331.640167,232.763153 
	C327.038422,240.079330 320.813751,244.711197 311.605896,242.928452 
	C307.929871,242.216751 307.522888,243.504761 308.710602,246.292450 
	C304.750000,247.369980 300.806366,248.456619 296.852417,249.504288 
	C296.234772,249.667953 295.322144,249.963242 294.964386,249.676163 
	C289.556000,245.336060 287.425262,252.371765 283.207642,252.028702 
	C283.358154,252.706833 283.508667,253.384964 283.659180,254.063095 
	C293.210358,252.265686 302.761536,250.468277 312.812164,248.576889 
	C310.778351,253.565552 309.095367,258.681763 306.668823,263.416870 
	C302.915466,270.741119 299.052399,278.069550 294.508331,284.913055 
	C288.700134,293.660339 279.717163,298.357758 270.078217,301.875793 
	C268.570374,302.426147 267.133514,303.171082 265.364044,304.083435 
	C265.064240,304.340881 265.021851,304.427917 264.712311,304.663208 
	C263.744568,305.952972 263.086334,307.007385 262.456390,308.050232 
	C262.484680,308.038666 262.542206,308.018005 262.542206,308.018005 
z"/>
<path fill="#2D6A4F" opacity="1.000000" stroke="none" 
	d="
M356.037964,58.065933 
	C351.093079,54.232243 346.351959,50.083950 341.119476,46.694199 
	C338.399780,44.932301 334.812073,44.510239 331.338867,44.212452 
	C348.874420,55.407230 352.412689,72.474533 353.121399,91.816460 
	C345.550171,90.270233 340.016052,86.167397 334.165070,82.689949 
	C324.293976,76.823204 319.625702,67.249672 315.614990,57.164356 
	C313.537323,51.939880 311.549377,46.676338 309.297363,41.528217 
	C308.959991,40.756916 307.437012,40.382469 306.389282,40.069950 
	C304.432404,39.486256 302.421783,39.082726 299.083771,38.279396 
	C308.706268,33.418247 317.611420,36.292194 326.059082,35.537205 
	C323.067657,34.660275 320.002197,33.974167 317.106232,32.851082 
	C314.379272,31.793526 313.537842,30.180895 316.326263,27.880619 
	C324.331421,21.276882 332.849823,17.599361 343.257324,22.098164 
	C345.181305,22.929842 347.398621,23.082897 349.773895,23.614870 
	C347.554230,31.063749 340.913910,32.885479 334.780731,35.424080 
	C335.434570,36.656990 335.990753,37.705742 336.686981,39.018562 
	C339.792328,38.138035 343.121246,37.492287 346.219452,36.264339 
	C360.136597,30.748383 374.942352,34.265259 384.981506,45.328651 
	C387.624908,48.241749 391.060272,50.422493 393.986694,53.098427 
	C395.413849,54.403408 396.506866,56.073845 398.278412,58.216644 
	C392.119507,59.241268 387.077911,60.080009 381.454681,61.015514 
	C386.060730,64.762367 390.464722,63.634686 394.914551,63.049431 
	C414.493103,60.474411 427.286255,70.346748 437.077484,85.981766 
	C439.005920,89.061272 439.343903,93.618202 444.057861,94.672791 
	C444.525787,94.777473 445.095886,97.027916 444.690186,97.784698 
	C444.168854,98.757034 442.724548,99.785843 441.649689,99.816925 
	C436.333862,99.970642 430.973053,100.162018 425.697937,99.637733 
	C421.320679,99.202690 417.020447,97.868713 412.730438,96.761261 
	C411.587189,96.466133 410.668030,95.391891 409.542084,94.926933 
	C398.364197,90.311012 391.908417,80.577591 384.443329,71.924889 
	C383.863129,71.252403 382.923004,70.890411 381.900421,70.212875 
	C381.650665,70.041634 381.565826,70.026901 381.452332,69.744698 
	C380.567474,66.841125 379.796082,64.219757 379.029724,61.615448 
	C374.512024,60.911804 369.651886,60.159939 364.793640,59.396229 
	C361.836334,58.931351 358.881927,58.448208 355.954163,57.996426 
	C355.982086,58.019585 356.037964,58.065933 356.037964,58.065933 
z"/>
<path fill="#2D6A4F" opacity="1.000000" stroke="none" 
	d="
M63.921577,338.954498 
	C68.290504,350.596588 71.471451,362.482391 71.343117,375.231750 
	C69.910934,357.771179 75.700264,342.348083 84.135033,326.473602 
	C91.484245,337.020355 99.277885,346.605682 104.546707,358.014587 
	C111.495132,373.060486 108.350159,388.305847 106.206047,404.196899 
	C102.482719,401.652893 102.366066,395.512238 96.087891,395.817871 
	C96.655396,397.771820 97.123245,399.382690 97.682076,401.306824 
	C90.067055,404.452606 84.111214,401.545471 78.449089,396.226166 
	C78.176064,396.111206 78.232491,396.161743 78.232483,396.161743 
	C76.431213,391.099396 75.149094,385.768738 72.704353,381.039001 
	C69.226257,374.310089 65.152611,368.558838 56.390804,366.701660 
	C34.883968,362.143127 23.416912,347.111969 18.110811,326.660797 
	C16.872433,321.887756 15.941067,317.032135 14.978464,312.192596 
	C14.743676,311.012177 14.943512,309.745331 14.943512,307.051300 
	C22.980303,310.466797 30.116907,313.210724 36.988140,316.507660 
	C42.915195,319.351562 48.540176,322.825012 54.644741,326.027893 
	C54.990776,326.035614 54.947712,325.967285 54.905937,326.256561 
	C55.260212,327.041473 55.656261,327.537079 56.028618,328.008575 
	C56.004925,327.984436 55.957581,327.936096 55.838676,328.298401 
	C58.490261,332.129852 61.260750,335.598999 64.003876,339.039673 
	C63.976509,339.011200 63.921577,338.954498 63.921577,338.954498 
z"/>
<path fill="#2D6A4F" opacity="1.000000" stroke="none" 
	d="
M37.094891,215.984863 
	C35.253139,215.716644 33.513134,216.179581 33.752285,212.783722 
	C33.897720,210.718582 31.190624,208.369263 29.594227,206.277878 
	C16.054621,188.540115 16.350002,169.620438 25.032892,150.162292 
	C27.928230,143.673920 31.612123,137.537170 34.942009,131.243103 
	C36.378460,128.527969 38.045773,128.165009 39.486725,131.119446 
	C42.071766,136.419632 44.467819,141.811966 47.132515,147.832916 
	C51.741615,152.217010 60.130383,151.338608 62.407101,146.754517 
	C62.963100,145.635040 62.554646,144.036575 62.589626,142.658325 
	C61.357895,142.666885 60.014893,142.356018 58.913788,142.739563 
	C54.261475,144.360214 52.647446,143.452805 53.239574,138.682251 
	C53.551476,136.169388 54.603016,133.491257 56.085697,131.441071 
	C58.308430,128.367584 61.427830,125.949089 63.713467,122.911598 
	C64.755356,121.526978 64.715996,119.328743 65.167061,117.499542 
	C81.546135,108.022835 103.707748,108.354050 119.269028,113.245209 
	C105.590790,141.275681 79.258827,158.141098 51.539349,156.523117 
	C52.990379,168.960785 55.091988,181.561249 49.844803,193.500626 
	C46.951397,200.084259 42.681217,206.062836 39.001099,212.644073 
	C38.970470,212.973984 39.038799,212.930496 38.687782,213.008362 
	C37.875759,214.079834 37.414749,215.073471 36.988968,216.046432 
	C37.024197,216.025772 37.094891,215.984863 37.094891,215.984863 
z"/>
<path fill="#2D6A4F" opacity="1.000000" stroke="none" 
	d="
M112.258759,78.446404 
	C110.519966,80.877777 108.759987,83.313454 107.074104,85.799370 
	C104.470482,89.638527 101.880524,93.488113 99.362411,97.383476 
	C98.430565,98.824989 97.718109,100.408325 96.344559,102.975616 
	C102.624184,101.796547 105.117836,97.334534 106.748108,93.810486 
	C111.110680,84.380219 123.603867,75.583488 134.784119,77.990181 
	C142.171432,79.580399 149.475693,81.564140 156.789505,83.477394 
	C157.614548,83.693214 158.259720,84.596550 159.505814,85.596268 
	C147.074448,95.342224 135.571625,105.659904 118.921219,106.015739 
	C113.589035,106.129684 108.199173,105.839264 102.947006,106.552956 
	C99.736656,106.989182 96.755363,108.057480 93.884750,105.764343 
	C94.042328,104.944534 94.034729,104.584557 94.027122,104.224586 
	C93.661247,104.454971 93.295372,104.685349 92.929497,104.915726 
	C89.739838,105.720215 86.470627,106.300003 83.383202,107.393204 
	C80.376549,108.457809 78.848251,107.125877 78.090736,104.645294 
	C73.917908,90.980827 74.728638,78.224747 83.936409,66.378616 
	C89.837761,58.786301 97.914513,54.523552 105.711739,49.658642 
	C108.398277,47.982433 111.009964,46.186237 115.088097,44.780300 
	C113.819588,54.356068 112.512001,63.927002 111.325623,73.512932 
	C111.152077,74.915092 111.555817,76.388702 111.995895,78.176888 
	C112.299362,78.524529 112.270767,78.473213 112.258759,78.446404 
z"/>
<path fill="#2D6A4F" opacity="1.000000" stroke="none" 
	d="
M406.292969,141.632950 
	C398.312195,126.965286 397.321533,111.819084 400.661011,95.335800 
	C403.942139,99.030327 407.341095,99.570801 411.801941,99.403854 
	C416.292755,99.235794 421.950043,100.768410 425.228363,103.667816 
	C432.559906,110.151993 441.514954,110.991501 450.145447,112.641930 
	C455.368744,113.640808 458.934235,116.381386 461.285370,120.167267 
	C464.920197,126.020248 467.514099,132.535751 470.319580,138.872070 
	C470.793610,139.942688 470.575287,142.015213 469.825531,142.723083 
	C469.167328,143.344513 467.266907,142.895386 465.998932,142.581070 
	C461.703430,141.516251 457.450592,140.280731 453.171478,139.148193 
	C444.009918,136.723450 438.945404,130.610504 436.937408,121.534134 
	C436.460663,119.379074 435.261353,117.383865 434.394440,115.315125 
	C434.000732,115.432518 433.606995,115.549911 433.213257,115.667297 
	C433.835358,120.384354 434.665192,125.086906 434.995941,129.824310 
	C435.173462,132.366974 434.294556,134.965088 434.236816,137.545898 
	C434.046906,146.030563 427.490479,151.995941 425.600403,159.787048 
	C425.213989,161.379898 424.854767,162.979324 424.204193,165.772934 
	C416.367432,158.633011 411.514557,150.222229 406.292969,141.632950 
z"/>
<path fill="#2D6A4F" opacity="1.000000" stroke="none" 
	d="
M474.080750,265.568481 
	C470.351746,265.678833 466.588043,265.399200 462.493164,265.302795 
	C460.072388,264.395966 457.982788,263.305969 454.448639,261.462433 
	C456.058990,265.057526 457.127563,267.322052 458.095734,269.628754 
	C460.373016,275.054504 462.989746,280.378357 464.750580,285.969696 
	C466.835846,292.591217 463.542419,298.359070 460.560547,304.009857 
	C459.754425,305.537476 458.840393,307.008148 458.770508,309.360809 
	C463.641998,306.016235 468.513489,302.671661 473.797791,299.559448 
	C473.392975,301.584473 473.064362,304.030853 471.680237,305.066376 
	C460.531464,313.407623 452.015961,323.214905 450.818054,337.921814 
	C450.673004,339.702423 448.434753,341.312561 447.166656,343.001709 
	C445.905121,335.206421 448.123444,327.957031 450.834778,320.202057 
	C450.805725,319.171936 450.598053,318.696686 450.390411,318.221436 
	C449.926880,318.758759 449.463348,319.296051 448.999817,319.833374 
	C448.020020,320.497528 446.909637,321.033203 446.095551,321.860382 
	C445.203583,322.766693 444.585114,323.942108 444.190521,324.508118 
	C442.050873,321.337891 440.353546,318.686096 438.521027,316.131317 
	C430.116333,304.413940 429.585632,289.984009 438.389771,277.460724 
	C442.700256,271.329315 447.839111,265.780212 453.333496,259.076355 
	C450.804199,256.808594 447.631592,253.964005 444.176575,250.966797 
	C443.894135,250.814178 443.950378,250.863770 443.950378,250.863770 
	C441.017914,243.605988 438.085449,236.348206 434.601898,227.726456 
	C438.468353,228.618164 441.400421,229.021271 444.136536,229.982239 
	C449.843719,231.986725 455.412811,234.381775 461.103210,236.437485 
	C466.867950,238.520035 469.819244,243.372223 471.477814,248.475693 
	C473.196136,253.763077 473.259064,259.588440 474.080750,265.568481 
z"/>
<path fill="#2D6A4F" opacity="1.000000" stroke="none" 
	d="
M17.920649,251.257675 
	C18.865511,247.424622 19.829426,243.556992 21.277735,239.514023 
	C22.399593,241.085876 23.559858,242.826233 23.582821,244.581451 
	C23.675667,251.677902 23.418196,258.778961 23.290035,265.878296 
	C22.617775,266.559601 21.945507,267.240875 22.151764,267.031860 
	C27.902491,278.809082 33.470917,290.212982 39.023594,301.584625 
	C38.665646,299.812622 38.323128,297.778320 37.832855,295.780243 
	C37.285339,293.548950 36.931595,291.185089 35.915134,289.170776 
	C33.470257,284.325684 35.266811,279.799561 37.102642,275.627075 
	C42.515091,263.325592 53.383911,257.254822 65.270233,251.667801 
	C67.644623,268.412231 65.034615,283.457092 55.575768,296.913971 
	C50.746452,303.784485 47.138531,310.761047 49.680805,319.864105 
	C49.703896,320.268524 49.751553,320.218475 49.751553,320.218475 
	C47.462048,317.949524 45.172543,315.680542 42.893738,313.422180 
	C42.823280,313.571808 42.322163,314.636139 42.233120,314.825256 
	C37.411201,312.498169 32.701794,309.957062 27.785696,307.913025 
	C19.501371,304.468536 12.025937,299.989288 7.977022,291.663940 
	C2.705085,280.823822 2.853233,269.157593 3.199172,255.880890 
	C8.166842,259.212646 11.968357,261.913208 15.944677,264.325623 
	C16.969372,264.947266 18.543770,264.662842 19.912365,264.082886 
	C19.959356,262.875000 19.959629,262.378937 19.959900,261.882843 
	C19.314762,258.561768 18.669626,255.240662 18.008316,251.541809 
	C17.992142,251.164032 17.939701,251.223083 17.920649,251.257675 
z"/>
<path fill="#2D6A4F" opacity="1.000000" stroke="none" 
	d="
M267.949463,363.955688 
	C271.160919,365.333313 274.398071,366.654266 277.579071,368.098907 
	C287.801727,372.741577 290.445953,382.676331 293.774078,391.939850 
	C296.025696,398.206848 295.162659,398.441772 288.302246,397.292877 
	C274.466248,394.975800 263.318146,386.583954 250.298660,381.239594 
	C250.457306,382.017029 250.476959,382.585724 250.695419,383.063568 
	C250.964737,383.652527 251.399612,384.165802 251.942047,384.980957 
	C241.763519,393.338440 230.351013,397.111237 215.970078,395.585785 
	C218.711472,389.242188 221.184433,383.435608 223.746704,377.668701 
	C224.205185,376.636810 224.827530,375.438080 225.724792,374.880920 
	C230.475037,371.930908 230.174637,368.804810 225.718811,365.121185 
	C233.024857,359.711792 235.942474,352.156830 236.327026,341.950989 
	C243.657898,346.697052 249.539536,350.504883 255.737930,354.141144 
	C256.054688,353.969574 255.976791,353.919464 255.821075,354.212524 
	C256.096558,354.965057 256.527740,355.424530 257.151367,356.077209 
	C257.601837,356.526794 257.859863,356.783142 258.219116,357.366272 
	C260.224884,359.484070 262.129364,361.275116 264.014313,363.041748 
	C263.994781,363.017365 263.955627,362.968658 263.887451,363.200745 
	C263.819305,365.722839 263.819305,368.012878 263.819305,370.567627 
	C265.449463,368.061432 266.756805,366.051575 268.035461,364.020203 
	C268.006744,363.998749 267.949463,363.955688 267.949463,363.955688 
M244.771271,377.376862 
	C245.207703,377.279694 245.644150,377.182556 245.989273,376.750031 
	C245.635269,376.806030 245.281265,376.862030 244.771271,377.376862 
M236.594284,363.360596 
	C232.363266,368.571442 233.081619,369.867432 242.763474,373.355438 
	C240.748886,369.683777 239.027359,366.546265 236.594284,363.360596 
z"/>
<path fill="#2D6A4F" opacity="1.000000" stroke="none" 
	d="
M23.591658,265.725311 
	C23.418196,258.778961 23.675667,251.677902 23.582821,244.581451 
	C23.559858,242.826233 22.399593,241.085876 21.464396,239.170258 
	C25.515684,232.006851 29.829878,224.989639 34.264553,218.049393 
	C34.737499,217.309265 35.914452,217.018951 36.929852,216.252411 
	C37.094891,215.984863 37.024197,216.025772 37.303635,215.897766 
	C38.068317,214.823349 38.553558,213.876923 39.038803,212.930496 
	C39.038799,212.930496 38.970470,212.973984 38.935905,212.995026 
	C40.775352,212.095596 42.649357,211.175110 45.252560,210.417618 
	C51.734360,212.056061 59.660084,207.467453 60.902199,201.942413 
	C62.285446,201.150085 63.668697,200.357742 65.204727,199.477890 
	C65.837624,200.728851 66.570526,201.550140 66.652458,202.431931 
	C68.339142,220.584518 66.748970,237.918442 53.418446,252.035934 
	C48.665459,257.069519 43.456665,261.681335 38.837044,266.827759 
	C37.087521,268.776825 36.638260,271.836761 35.163960,274.109894 
	C34.251652,275.516571 32.525345,276.395294 31.164444,277.511017 
	C30.715233,276.121368 30.021048,274.758331 29.866346,273.336639 
	C29.513222,270.091461 29.424286,266.817474 29.217041,263.372589 
	C27.203960,264.204376 25.548624,264.888336 23.591658,265.725311 
z"/>
<path fill="#2D6A4F" opacity="1.000000" stroke="none" 
	d="
M229.141937,243.032043 
	C228.055191,243.800705 226.968430,244.569366 225.840576,245.367111 
	C225.004517,244.208328 224.020645,242.844666 222.605652,240.883499 
	C221.728912,248.131622 220.952911,254.546906 220.036560,262.122528 
	C218.384094,260.244293 217.190369,258.887482 215.313446,256.754120 
	C216.195282,260.883728 216.900879,264.188049 217.113068,267.423981 
	C214.093506,266.442535 211.567383,265.529510 209.041260,264.616455 
	C208.924683,264.953156 208.808105,265.289886 208.691513,265.626617 
	C211.228134,266.640381 213.764755,267.654114 216.301376,268.667877 
	C222.060242,274.846741 219.501144,282.697327 221.481110,290.717468 
	C214.204559,288.038544 209.111618,284.768311 206.948853,278.138123 
	C205.435059,273.497406 204.023193,268.823517 202.527466,264.176788 
	C202.375305,263.704132 202.051468,263.081970 201.651611,262.924500 
	C195.707855,260.583527 193.943100,254.907074 190.632553,249.589905 
	C193.633636,248.748566 196.196259,248.030136 200.164352,246.917694 
	C194.732117,243.478577 187.622711,242.979904 188.531738,234.678040 
	C187.972260,235.024811 187.412766,235.371582 186.853287,235.718353 
	C187.241150,238.187012 187.628998,240.655685 188.004974,243.048721 
	C180.236984,241.915482 174.723495,238.761841 173.429626,228.790192 
	C176.343719,229.311569 178.998245,229.873642 181.682022,230.176239 
	C182.102844,230.223679 182.656509,229.092834 183.044373,228.217697 
	C182.939987,227.928574 182.879272,227.977280 182.879272,227.977280 
	C183.585144,226.400696 184.752090,224.870468 184.916107,223.239380 
	C185.583633,216.601257 185.943832,209.932220 186.417313,203.274582 
	C187.228302,202.954086 188.039276,202.633606 188.850266,202.313110 
	C192.230743,205.870895 196.301010,209.004364 198.816849,213.094040 
	C201.951324,218.189377 203.803696,224.073410 206.729858,229.803070 
	C207.358383,229.872543 207.580963,229.702164 207.555603,229.648193 
	C207.434616,229.390549 207.246323,229.164536 207.081970,228.927261 
	C211.403091,226.938583 217.526917,230.024704 219.929398,234.867752 
	C219.737518,232.798233 219.545654,230.728729 219.474808,229.964478 
	C220.656570,227.449265 221.746368,225.129776 222.836182,222.810303 
	C223.622833,223.128876 224.409485,223.447449 225.196136,223.766022 
	C226.444794,229.947922 227.693436,236.129822 229.011017,242.695099 
	C229.079971,243.078461 229.141922,243.032028 229.141937,243.032043 
M206.793655,238.588974 
	C207.080963,236.301804 207.368256,234.014618 207.655563,231.727448 
	C207.223633,231.697556 206.791687,231.667664 206.359756,231.637772 
	C206.359756,234.029617 206.359756,236.421463 206.793655,238.588974 
M211.601547,251.251953 
	C210.888367,250.964935 210.175201,250.677917 209.462021,250.390900 
	C209.273422,250.615494 209.084824,250.840088 208.896210,251.064667 
	C209.926376,252.044449 210.956543,253.024231 211.986710,254.003998 
	C212.263931,253.757324 212.541153,253.510635 212.818390,253.263962 
	C212.556931,252.728607 212.295471,252.193253 211.601547,251.251953 
z"/>
<path fill="#2D6A4F" opacity="1.000000" stroke="none" 
	d="
M400.914581,381.053345 
	C406.999207,379.353790 412.995728,376.816040 419.190582,376.164642 
	C427.121735,375.330566 435.215302,375.905670 443.233612,376.095673 
	C446.927948,376.183197 450.544495,378.896027 454.375366,376.278931 
	C454.721710,376.042358 455.993408,377.160278 456.781097,377.617676 
	C447.664795,399.315308 433.625854,414.102661 404.426514,409.236816 
	C398.684204,408.279877 392.894196,407.609131 386.900970,406.775085 
	C384.702026,401.308105 390.095886,389.834747 397.864594,384.282471 
	C398.019745,384.017914 397.962585,384.068085 398.283997,383.929749 
	C399.418610,382.839783 400.231812,381.888123 401.012451,380.965759 
	C400.979919,380.995026 400.914581,381.053345 400.914581,381.053345 
z"/>
<path fill="#2D6A4F" opacity="1.000000" stroke="none" 
	d="
M251.820145,457.038116 
	C252.573242,458.063812 253.326340,459.089539 254.332047,460.459290 
	C249.279022,461.044220 244.686996,462.043945 240.105133,461.999329 
	C232.748871,461.927734 227.003784,465.043732 221.796341,469.716278 
	C205.949326,483.935638 187.277588,485.500366 168.735092,475.442871 
	C164.671371,473.238708 160.426346,471.368805 156.264832,469.344971 
	C156.213409,468.766937 156.161987,468.188934 156.110580,467.610901 
	C165.402954,462.314514 174.695312,457.018127 183.879044,451.394226 
	C183.770401,451.066742 183.697113,451.113068 183.697113,451.113068 
	C186.108978,450.856995 188.548874,450.753632 190.927536,450.316803 
	C198.680862,448.892975 205.847397,449.540680 213.459488,452.616455 
	C219.400085,455.016815 226.593338,454.299530 233.225189,455.011902 
	C239.194336,455.653046 245.156998,456.354370 251.505173,457.054749 
	C251.887817,457.080414 251.820145,457.038116 251.820145,457.038116 
z"/>
<path fill="#2D6A4F" opacity="1.000000" stroke="none" 
	d="
M241.107208,146.951065 
	C242.615387,148.229858 244.123581,149.508652 245.768448,150.903320 
	C248.735703,148.333618 248.747742,145.653381 248.504395,141.824478 
	C248.202576,137.075623 249.832275,131.815460 251.940948,127.403908 
	C254.376495,122.308487 258.242676,117.896896 261.795532,112.741707 
	C267.024292,117.110466 268.159912,123.215523 269.911377,128.868118 
	C274.291168,143.003036 266.437592,152.306656 256.941132,160.942062 
	C256.146576,161.664612 255.492920,163.342819 255.757950,164.306305 
	C258.447266,174.083252 256.038696,182.338074 249.102203,189.621170 
	C247.863174,190.922104 245.667465,192.952011 247.954865,195.622910 
	C247.930511,195.879211 247.973343,195.811493 247.973343,195.811493 
	C246.645721,197.121613 244.678070,198.200775 244.106781,199.783829 
	C242.150970,205.203552 240.685379,210.800156 238.701263,217.438660 
	C236.732956,213.319885 235.188156,210.649277 234.143448,207.795578 
	C231.041519,199.322311 234.344238,191.736801 237.667297,184.159576 
	C238.103867,183.164078 237.917236,181.895279 238.102692,180.017487 
	C238.384857,175.660690 238.461761,172.027771 238.808075,168.420746 
	C239.495941,161.256653 240.332245,154.106796 241.107208,146.951065 
z"/>
<path fill="#2D6A4F" opacity="1.000000" stroke="none" 
	d="
M157.049545,400.893463 
	C170.428802,405.495148 180.299622,413.961670 186.977509,426.588593 
	C190.407639,433.074463 195.174774,438.851807 199.304123,444.972015 
	C199.644562,445.476593 199.726654,446.155518 199.285706,448.038849 
	C192.932068,445.154327 186.578415,442.269806 180.224762,439.385284 
	C179.960449,439.830811 179.696121,440.276337 179.431808,440.721893 
	C182.555527,442.940582 185.679245,445.159302 189.278229,447.715576 
	C187.426376,448.738953 185.805939,449.634430 183.941315,450.821472 
	C183.697113,451.113068 183.770401,451.066742 183.795898,451.036865 
	C179.405045,451.229431 174.988693,451.451874 170.224274,451.021423 
	C168.685089,448.488922 167.934753,445.905792 166.233734,444.839996 
	C151.493454,435.604401 146.224609,421.263245 144.307083,405.067108 
	C143.712982,400.049042 145.654846,398.806122 150.416870,400.312012 
	C152.482498,400.965179 154.830048,400.726868 157.049545,400.893463 
z"/>
<path fill="#2D6A4F" opacity="1.000000" stroke="none" 
	d="
M261.754395,24.722076 
	C272.123413,9.035419 290.061798,2.734828 307.867249,8.002863 
	C313.838257,9.769473 320.052338,10.711087 326.146790,12.068123 
	C326.886597,12.232855 327.573059,12.637250 329.435486,13.405396 
	C315.784821,20.481050 307.722107,34.458958 291.985382,36.514034 
	C284.168091,37.534901 276.465790,39.117157 268.487793,36.620995 
	C264.408173,35.344566 259.812805,35.716602 253.899048,35.210915 
	C256.951080,31.108250 259.228516,28.046818 261.754395,24.722076 
z"/>
<path fill="#2D6A4F" opacity="1.000000" stroke="none" 
	d="
M445.771210,347.837982 
	C444.870331,353.811035 444.119781,359.811707 443.028442,365.749756 
	C441.814178,372.356781 432.276337,374.917725 426.347076,372.328186 
	C427.220978,370.284119 428.420319,368.301361 428.882385,366.159546 
	C429.317596,364.142456 428.975739,361.957733 428.655396,359.603363 
	C426.279480,365.116974 425.069611,371.624878 417.202972,372.679993 
	C411.529266,356.509216 410.284760,340.573273 419.535980,325.041931 
	C421.728271,321.361389 423.766663,317.588867 425.977539,313.919952 
	C426.508453,313.038910 427.445648,312.402740 428.195984,311.653931 
	C428.947174,312.414490 429.924408,313.052277 430.414551,313.954651 
	C435.123657,322.624329 439.897247,331.265625 444.293243,340.093872 
	C445.329803,342.175537 445.015411,344.929932 445.575378,347.631653 
	C445.828278,347.888458 445.771210,347.837982 445.771210,347.837982 
z"/>
<path fill="#2D6A4F" opacity="1.000000" stroke="none" 
	d="
M381.565826,70.026901 
	C381.565826,70.026901 381.650665,70.041634 381.644775,70.012802 
	C383.641632,74.014458 385.264648,78.295395 387.724121,82.024666 
	C393.292725,90.468170 393.390778,99.757462 392.755798,109.243591 
	C392.506592,112.966461 392.078613,116.677368 391.599457,121.815536 
	C388.547821,119.314613 386.363617,117.273438 383.936981,115.579460 
	C373.613220,108.372612 364.961304,99.610764 360.178497,87.849815 
	C357.991333,82.471581 357.288239,76.474358 356.066345,70.725090 
	C355.384827,67.518318 354.933472,64.253998 354.567657,60.994366 
	C354.465759,60.086292 355.038727,59.102478 355.670044,58.109673 
	C356.037964,58.065933 355.982086,58.019585 356.156616,58.295261 
	C364.242371,62.506992 373.458221,63.761143 380.187988,70.158257 
	C380.407379,70.366821 381.095947,70.081818 381.565826,70.026901 
z"/>
<path fill="#2D6A4F" opacity="1.000000" stroke="none" 
	d="
M283.821655,432.614594 
	C281.136963,432.906403 278.208496,433.121979 275.314697,432.895294 
	C265.596619,432.134064 255.896851,430.658997 246.178314,430.554840 
	C239.848984,430.487030 239.780136,432.608002 242.689407,437.965576 
	C249.316177,450.169067 260.978943,456.249298 271.679932,463.671967 
	C275.098083,466.042969 277.765869,469.495667 280.907471,472.786499 
	C279.905670,473.290039 278.390747,474.010925 277.707367,473.535797 
	C274.731079,471.466431 272.033325,469.000732 269.137665,466.806641 
	C268.664948,466.448456 267.706604,466.731171 266.972687,466.717651 
	C267.134369,467.413300 267.535645,468.154480 267.413696,468.796234 
	C267.014709,470.895416 267.016907,473.420776 265.813507,474.960602 
	C257.711090,485.327850 246.824753,488.954041 234.135986,486.438293 
	C228.558792,485.332520 223.241196,482.917328 216.855316,480.778320 
	C223.945114,474.397156 229.360626,468.029510 237.754700,464.717377 
	C246.214325,461.379364 254.372498,465.255737 262.644287,465.401001 
	C262.806946,464.702026 262.969604,464.003052 263.132294,463.304077 
	C259.604950,461.104034 256.077576,458.903961 252.185181,456.871002 
	C251.820145,457.038116 251.887817,457.080414 251.907608,457.115540 
	C249.760437,454.120941 247.629074,451.065033 245.418945,448.067169 
	C241.047379,442.137390 236.632263,436.239655 231.607285,429.484711 
	C250.185486,423.204559 266.981842,425.912231 283.821655,432.614594 
z"/>
<path fill="#2D6A4F" opacity="1.000000" stroke="none" 
	d="
M447.027985,343.274200 
	C448.434753,341.312561 450.673004,339.702423 450.818054,337.921814 
	C452.015961,323.214905 460.531464,313.407623 471.680237,305.066376 
	C473.064362,304.030853 473.392975,301.584473 474.126892,299.479248 
	C480.532501,296.411682 487.021881,293.656677 493.489380,290.910950 
	C496.384003,308.176514 485.434723,331.655731 470.210236,339.796661 
	C463.992828,343.121277 457.354309,345.681549 450.809113,348.348419 
	C449.638641,348.825348 447.986664,348.120636 446.164124,347.899780 
	C445.771210,347.837982 445.828278,347.888458 445.849854,347.913513 
	C446.210724,346.474609 446.550018,345.010651 447.027985,343.274200 
z"/>
<path fill="#2D6A4F" opacity="1.000000" stroke="none" 
	d="
M229.057205,243.109756 
	C230.212799,242.366760 231.391159,241.592468 232.163376,241.085037 
	C234.130371,243.413284 235.751480,245.332123 237.690247,247.124176 
	C238.007889,246.997391 237.960052,246.933578 237.840424,247.262833 
	C238.492493,248.417892 239.264221,249.243683 240.008362,250.041855 
	C239.980789,250.014236 239.925400,249.959229 239.925400,249.959229 
	C241.003937,251.774490 241.922226,253.710739 243.186783,255.385513 
	C251.959366,267.003754 250.728607,279.284790 243.684052,290.563324 
	C241.108398,294.687042 241.807892,296.900879 242.912369,300.372223 
	C243.620209,302.596954 243.589340,305.056732 244.048248,308.654877 
	C235.116043,303.805298 227.397598,299.546143 223.976105,290.365204 
	C218.641556,276.050995 220.290512,262.216187 226.702271,248.674362 
	C227.475159,247.042038 228.100662,245.339920 228.968201,243.351105 
	C229.141922,243.032028 229.079971,243.078461 229.057205,243.109756 
z"/>
<path fill="#2D6A4F" opacity="1.000000" stroke="none" 
	d="
M130.424652,419.036652 
	C133.188248,422.281860 135.951859,425.527100 139.112030,429.238007 
	C126.202896,432.523071 114.097580,438.399658 100.659386,432.346069 
	C87.891502,426.594391 79.713852,416.634644 73.460693,403.347107 
	C77.924133,403.887085 82.140839,404.596283 86.385048,404.856018 
	C90.850937,405.129303 95.502800,404.239960 99.786919,405.173431 
	C106.434250,406.621796 112.838852,409.184174 119.689316,411.129486 
	C120.032272,410.984680 119.955269,410.933868 119.867737,411.290924 
	C123.381805,414.111847 126.983398,416.575714 130.544922,419.038361 
	C130.504837,419.037140 130.424637,419.036652 130.424652,419.036652 
z"/>
<path fill="#2D6A4F" opacity="1.000000" stroke="none" 
	d="
M249.091522,227.068375 
	C248.599655,225.757904 248.495544,223.951828 247.554428,223.215576 
	C240.215836,217.474258 242.668427,210.618134 245.125366,203.771439 
	C246.008362,201.310852 247.221878,198.968872 248.128952,196.192123 
	C247.973343,195.811493 247.930511,195.879211 247.895645,195.899124 
	C248.175934,195.508896 248.491089,195.098755 249.152130,194.353714 
	C249.688736,193.984344 249.879471,193.949890 250.070190,193.915436 
	C254.159668,189.062317 258.173370,184.142349 262.370483,179.384186 
	C264.483612,176.988602 266.929718,174.886734 269.107727,172.322571 
	C268.990173,171.993103 268.927887,172.052933 268.927887,172.052933 
	C269.990417,172.789291 271.791199,173.357651 272.002838,174.287643 
	C274.503387,185.276016 278.803101,196.408722 273.805389,207.559799 
	C271.016205,213.783127 266.556427,219.246933 262.980560,225.132690 
	C261.007263,228.380707 259.304932,231.793350 257.782501,234.579071 
	C255.262070,232.134750 252.480423,229.437088 249.364746,226.875000 
	C249.030716,227.010559 249.091537,227.068375 249.091522,227.068375 
z"/>
<path fill="#2D6A4F" opacity="1.000000" stroke="none" 
	d="
M156.825073,400.616577 
	C154.830048,400.726868 152.482498,400.965179 150.416870,400.312012 
	C145.654846,398.806122 143.712982,400.049042 144.307083,405.067108 
	C146.224609,421.263245 151.493454,435.604401 166.233734,444.839996 
	C167.934753,445.905792 168.685089,448.488922 169.917343,450.742035 
	C168.288452,450.541016 166.618408,449.966553 164.703491,449.307861 
	C164.797455,450.127197 164.875076,450.985992 164.999680,451.837891 
	C165.117584,452.644104 165.284821,453.443054 165.448578,454.345581 
	C144.130127,474.064941 124.282875,459.522888 114.660408,442.119995 
	C122.240654,438.725861 130.279358,437.350311 138.113083,439.136841 
	C145.502243,440.821991 152.455765,444.417328 159.973267,446.751007 
	C143.493454,433.061615 140.712341,414.240173 138.715302,393.652985 
	C145.352249,396.134308 150.976425,398.237030 156.825073,400.616577 
z"/>
<path fill="#2D6A4F" opacity="1.000000" stroke="none" 
	d="
M263.274963,44.361347 
	C263.956329,43.546566 264.570648,42.095509 265.329468,42.015533 
	C272.831146,41.224926 280.355347,40.177483 287.875977,40.155209 
	C297.484833,40.126755 303.305542,46.258045 307.023346,54.384457 
	C309.671631,60.173077 311.639343,66.273064 314.200836,72.995415 
	C293.603882,69.755348 274.897308,65.119019 264.227112,44.938396 
	C263.540344,44.602146 263.407654,44.481750 263.274963,44.361347 
z"/>
<path fill="#2D6A4F" opacity="1.000000" stroke="none" 
	d="
M49.679359,320.292847 
	C50.428177,319.401276 51.819309,318.523895 51.879120,317.563599 
	C52.463886,308.174988 58.484245,301.509674 63.296154,294.242859 
	C64.603104,292.269135 66.090866,290.415192 67.580040,288.391541 
	C80.491158,303.678009 81.596840,333.631714 70.124176,346.596985 
	C68.294785,344.091125 66.466255,341.584595 64.279655,339.016296 
	C63.921577,338.954498 63.976509,339.011200 64.092407,338.765930 
	C64.949165,334.890930 60.338566,328.976166 55.957581,327.936096 
	C55.957581,327.936096 56.004925,327.984436 56.070354,327.719360 
	C55.739758,326.958588 55.343735,326.462952 54.947708,325.967285 
	C54.947712,325.967285 54.990776,326.035614 55.011620,326.070190 
	C53.454750,324.286804 51.877045,322.468872 50.025444,320.434692 
	C49.751553,320.218475 49.703896,320.268524 49.679359,320.292847 
z"/>
<path fill="#2D6A4F" opacity="1.000000" stroke="none" 
	d="
M182.963547,227.897598 
	C175.767792,228.852921 169.716324,225.685684 163.846756,222.237793 
	C154.114471,216.520920 151.111420,206.234833 145.896194,195.378571 
	C153.812103,197.425079 160.383575,199.124008 167.126526,200.867279 
	C160.375916,196.773666 159.182541,189.784317 158.227142,182.685593 
	C167.053116,182.150330 175.704193,189.498535 177.957947,199.364914 
	C178.575012,202.066330 179.385941,204.723846 180.127808,207.395996 
	C180.258453,207.866653 180.744095,208.632568 180.634644,208.719574 
	C175.502274,212.798309 182.009735,215.164703 182.087540,218.489426 
	C182.157608,221.483398 182.746429,224.465225 182.992859,227.714844 
	C182.879272,227.977280 182.939987,227.928574 182.963547,227.897598 
z"/>
<path fill="#2D6A4F" opacity="1.000000" stroke="none" 
	d="
M217.812836,452.384827 
	C200.311447,448.075623 196.977936,433.836700 193.051071,418.575958 
	C200.087982,420.482971 206.336319,422.231232 212.614166,423.866058 
	C225.331345,427.177704 231.655472,437.926727 239.405899,446.976013 
	C239.785385,447.419098 238.991257,449.836334 238.316727,450.062836 
	C231.789124,452.254456 225.220200,454.596130 217.812836,452.384827 
z"/>
<path fill="#2D6A4F" opacity="1.000000" stroke="none" 
	d="
M60.659176,201.829483 
	C59.660084,207.467453 51.734360,212.056061 45.607117,210.387039 
	C48.003010,208.419220 50.773540,206.644974 53.289650,205.033646 
	C53.462414,203.491898 53.311253,202.018646 53.816990,200.823334 
	C55.848789,196.021103 55.599918,191.384415 55.206535,186.152908 
	C54.766609,180.302383 56.768898,173.533951 59.782005,168.376434 
	C62.484268,163.751022 67.677238,160.256790 72.407768,157.272141 
	C74.904549,155.696838 78.759720,156.274536 82.167892,155.859940 
	C85.446693,162.747421 84.256729,166.784332 77.975739,168.137970 
	C79.074112,183.220108 71.866943,193.278778 58.229389,199.415833 
	C59.065971,200.296005 59.741066,201.006287 60.659176,201.829483 
z"/>
<path fill="#2D6A4F" opacity="1.000000" stroke="none" 
	d="
M383.502930,442.974365 
	C381.004089,442.693970 378.941895,442.425781 375.879913,442.027557 
	C377.939392,434.964172 382.543274,429.068115 387.165161,423.569366 
	C395.831543,413.258911 407.891968,412.439178 420.362854,413.201477 
	C416.388977,429.516479 403.870605,445.037445 383.502930,442.974365 
z"/>
<path fill="#2D6A4F" opacity="1.000000" stroke="none" 
	d="
M130.663788,418.838318 
	C130.424637,419.036652 130.504837,419.037140 130.281677,418.784363 
	C126.690781,415.998993 123.323021,413.466431 119.955269,410.933868 
	C119.955269,410.933868 120.032272,410.984680 120.071014,411.009705 
	C115.534821,406.091583 111.637558,400.515167 110.952942,393.812744 
	C110.538788,389.758301 112.186501,385.450653 113.142174,381.310913 
	C114.082527,377.237518 115.318794,373.232391 116.551659,368.736145 
	C126.182022,378.060486 132.334732,388.495636 133.751282,401.273804 
	C134.044632,403.919922 132.576019,406.716553 132.336456,409.479919 
	C132.120544,411.970825 132.577789,414.514435 132.500061,417.027435 
	C132.482956,417.580872 131.461777,418.103271 130.663788,418.838318 
z"/>
<path fill="#2D6A4F" opacity="1.000000" stroke="none" 
	d="
M238.031860,247.029266 
	C237.768707,245.525726 237.812943,243.823196 237.137390,242.483704 
	C234.141312,236.543106 234.082275,230.169952 234.025665,223.777161 
	C233.991074,219.874008 235.914154,219.750473 238.724426,221.398972 
	C241.923004,223.275269 245.129608,225.137924 248.712128,227.037445 
	C249.091537,227.068375 249.030716,227.010559 249.001633,226.980682 
	C250.311462,229.105972 251.284576,231.641174 253.056412,233.346588 
	C258.873871,238.945938 263.973053,257.764587 258.606232,265.510803 
	C253.951492,261.396790 249.425446,257.364746 244.858444,253.379654 
	C243.507797,252.201111 242.041580,251.155029 240.276855,250.003738 
	C239.925400,249.959229 239.980789,250.014236 240.057587,249.746490 
	C239.409607,248.630356 238.684830,247.781967 237.960052,246.933578 
	C237.960052,246.933578 238.007889,246.997391 238.031860,247.029266 
z"/>
<path fill="#2D6A4F" opacity="1.000000" stroke="none" 
	d="
M64.918640,117.695847 
	C64.715996,119.328743 64.755356,121.526978 63.713467,122.911598 
	C61.427830,125.949089 58.308430,128.367584 56.085697,131.441071 
	C54.603016,133.491257 53.551476,136.169388 53.239574,138.682251 
	C52.647446,143.452805 54.261475,144.360214 58.913788,142.739563 
	C60.014893,142.356018 61.357895,142.666885 62.589626,142.658325 
	C62.554646,144.036575 62.963100,145.635040 62.407101,146.754517 
	C60.130383,151.338608 51.741615,152.217010 47.181679,148.192047 
	C47.742294,147.080505 49.131138,146.187912 49.040375,145.486862 
	C47.862129,136.385849 50.650227,128.898361 57.551254,122.843224 
	C58.403893,122.095108 58.704491,120.717842 59.385189,118.733208 
	C54.027138,122.435692 53.475880,119.008064 53.080875,115.636330 
	C51.698116,103.833084 55.017052,93.894691 64.778656,86.545624 
	C65.546494,85.967552 66.137253,85.154274 67.111908,84.134865 
	C70.428169,90.314072 73.006355,96.949066 70.664062,103.337021 
	C68.546135,109.113098 63.965981,113.986351 59.709778,120.406876 
	C62.008457,119.241547 63.339344,118.566856 64.918640,117.695847 
z"/>
<path fill="#2D6A4F" opacity="1.000000" stroke="none" 
	d="
M144.403732,28.359711 
	C147.454208,28.162849 148.290161,29.410442 147.513412,31.980797 
	C146.089310,36.693359 144.943649,41.498749 143.331604,46.143875 
	C140.644592,53.886547 134.038696,57.819374 127.473083,61.688351 
	C125.679604,62.745213 123.767914,63.601494 121.907997,64.544754 
	C114.519417,49.193546 123.343681,36.918953 136.402939,31.992008 
	C139.018600,31.005180 141.507004,29.681034 144.403732,28.359711 
z"/>
<path fill="#2D6A4F" opacity="1.000000" stroke="none" 
	d="
M254.134094,20.809027 
	C243.345947,21.591503 233.238983,20.803699 223.945831,15.723619 
	C236.627472,0.119311 251.938354,0.503154 268.379791,9.057304 
	C266.197174,15.039175 259.865570,17.312662 254.134094,20.809027 
z"/>
<path fill="#2D6A4F" opacity="1.000000" stroke="none" 
	d="
M14.198940,229.696442 
	C11.391191,225.423416 8.151960,221.671478 6.405457,217.320343 
	C3.131853,209.164688 6.469035,201.451706 9.607692,193.960556 
	C10.976107,190.694534 13.470356,192.145050 14.690156,193.763840 
	C21.219347,202.428650 25.991304,211.716370 23.445217,223.152908 
	C22.466740,227.548019 21.662300,231.981888 20.601566,237.282562 
	C18.010157,234.196854 16.225668,232.071976 14.198940,229.696442 
z"/>
<path fill="#2D6A4F" opacity="1.000000" stroke="none" 
	d="
M78.151085,396.082733 
	C76.289337,399.669830 72.519966,399.222992 69.775536,398.968323 
	C53.399502,397.448639 48.509796,390.261505 46.056110,374.148865 
	C45.700279,371.812225 46.006756,369.374786 46.006756,367.337830 
	C50.886200,369.734497 55.306210,371.448059 59.216164,373.956604 
	C63.009869,376.390564 66.279869,379.640747 70.286766,382.951324 
	C69.921906,386.215698 73.713013,394.097076 77.839996,396.093750 
	C78.232491,396.161743 78.176064,396.111206 78.151085,396.082733 
z"/>
<path fill="#2D6A4F" opacity="1.000000" stroke="none" 
	d="
M450.709259,357.855896 
	C454.558319,352.096588 454.558319,352.096588 474.330139,344.549622 
	C475.394348,362.785156 459.885010,376.545776 445.515961,371.867218 
	C447.169678,367.284088 448.819641,362.711426 450.709259,357.855896 
z"/>
<path fill="#2D6A4F" opacity="1.000000" stroke="none" 
	d="
M258.117859,357.039459 
	C257.859863,356.783142 257.601837,356.526794 257.136017,355.781738 
	C256.611053,354.835175 256.293915,354.377319 255.976791,353.919464 
	C255.976791,353.919464 256.054688,353.969574 256.093933,353.994141 
	C254.229706,351.785248 252.326248,349.551819 249.884262,346.686493 
	C249.798538,346.817078 250.375107,345.938873 251.465591,344.277832 
	C248.418472,344.132629 246.005798,344.017670 243.238937,343.885834 
	C243.456039,343.156494 243.690994,342.367188 244.296570,341.277588 
	C249.518829,341.144653 250.029419,336.719025 252.104095,333.948242 
	C253.100052,333.423981 254.235046,333.061554 255.067154,332.346588 
	C258.191864,329.661743 261.217773,326.861877 264.742798,323.634064 
	C265.344818,322.284149 265.484680,321.405273 265.624542,320.526398 
	C265.269989,320.465698 264.915405,320.404968 264.560852,320.344238 
	C264.348236,321.203613 264.135620,322.062958 263.922974,322.922333 
	C257.332520,319.782257 257.083344,317.463135 262.472778,308.398132 
	C262.542206,308.018005 262.484680,308.038666 262.850220,307.894409 
	C263.817810,306.642731 264.419830,305.535309 265.021851,304.427917 
	C265.021851,304.427917 265.064240,304.340881 265.033081,304.349121 
	C269.002197,303.723175 273.002411,303.088959 277.020111,302.451996 
	C278.705841,307.223602 275.679077,314.105042 270.554749,317.784149 
	C269.476379,318.558350 269.133087,320.356354 268.682678,322.290283 
	C267.619385,324.867188 266.523590,327.012848 264.976532,328.758575 
	C263.248901,330.708099 260.966919,332.158997 259.180786,334.065460 
	C254.556274,339.001465 254.420013,344.100555 258.345398,349.618469 
	C259.463348,351.189941 260.124908,353.086090 260.732941,355.016541 
	C259.686035,355.812988 258.901947,356.426239 258.117859,357.039459 
z"/>
<path fill="#2D6A4F" opacity="1.000000" stroke="none" 
	d="
M252.113068,333.553497 
	C250.029419,336.719025 249.518829,341.144653 244.276306,341.009827 
	C238.070084,339.389404 235.477020,334.534271 234.536514,329.492157 
	C233.597137,324.455963 234.332687,319.062927 234.743744,313.858704 
	C234.821152,312.878662 236.924164,311.174744 237.923004,311.288788 
	C247.396088,312.370544 254.765945,323.913849 252.113068,333.553497 
z"/>
<path fill="#2D6A4F" opacity="1.000000" stroke="none" 
	d="
M261.133423,94.014534 
	C264.314240,104.890930 257.520844,111.453758 251.708984,119.573868 
	C249.640747,110.674606 246.986465,102.928612 246.262802,95.006256 
	C245.656601,88.369682 249.181061,82.335464 253.804657,75.688606 
	C256.564667,82.504959 258.811340,88.053513 261.133423,94.014534 
z"/>
<path fill="#2D6A4F" opacity="1.000000" stroke="none" 
	d="
M241.240631,146.668381 
	C240.332245,154.106796 239.495941,161.256653 238.808075,168.420746 
	C238.461761,172.027771 238.384857,175.660690 238.042969,179.668610 
	C234.738617,174.611877 233.681900,168.829773 234.609222,162.560791 
	C235.163986,158.810455 234.862640,154.926224 235.506470,151.198975 
	C235.902573,148.905960 237.355469,146.795502 238.913742,143.303696 
	C232.299454,133.632370 236.762619,124.075859 244.390015,114.358826 
	C245.480942,115.166740 247.352051,115.814629 247.704315,116.938553 
	C249.404770,122.364067 251.164246,127.711990 247.450348,133.360168 
	C244.845795,137.321228 243.359650,142.017670 241.240631,146.668381 
z"/>
<path fill="#2D6A4F" opacity="1.000000" stroke="none" 
	d="
M278.918793,234.024841 
	C277.438354,243.147400 271.986084,249.278412 265.929016,255.273895 
	C255.087311,238.805893 262.960571,226.703415 274.303711,220.333420 
	C275.849274,224.782806 277.384460,229.202225 278.918793,234.024841 
z"/>
<path fill="#2D6A4F" opacity="1.000000" stroke="none" 
	d="
M260.995758,354.833374 
	C260.124908,353.086090 259.463348,351.189941 258.345398,349.618469 
	C254.420013,344.100555 254.556274,339.001465 259.180786,334.065460 
	C260.966919,332.158997 263.248901,330.708099 264.976532,328.758575 
	C266.523590,327.012848 267.619385,324.867188 268.958008,322.532288 
	C274.767487,319.011200 276.351624,319.859100 275.935120,326.446838 
	C275.397644,334.947968 272.894867,342.810577 266.993134,349.625244 
	C266.958405,349.954254 267.028137,349.917969 266.758728,350.088257 
	C266.310669,350.861847 266.131989,351.465118 265.976562,352.034851 
	C265.999786,352.001312 266.046295,351.934235 265.776733,352.044617 
	C264.845642,353.699615 264.184082,355.244232 263.729584,356.305389 
	C262.774139,355.790924 261.884949,355.312134 260.995758,354.833374 
z"/>
<path fill="#2D6A4F" opacity="1.000000" stroke="none" 
	d="
M154.039993,195.493011 
	C142.296188,191.750702 133.259903,178.943909 134.593201,168.183441 
	C145.986740,169.741135 157.362183,178.715210 156.803818,190.500092 
	C156.728287,192.094254 159.031601,195.886841 154.039993,195.493011 
z"/>
<path fill="#2D6A4F" opacity="1.000000" stroke="none" 
	d="
M398.048401,383.992920 
	C393.305908,383.514435 390.909393,380.182129 391.990936,375.257904 
	C394.683167,363.000244 395.439636,362.849579 407.915161,354.375854 
	C412.989319,361.155151 410.341248,371.194092 400.987000,380.709839 
	C400.914581,381.053345 400.979919,380.995026 400.684143,380.991943 
	C399.579803,382.015289 398.771210,383.041687 397.962585,384.068085 
	C397.962585,384.068085 398.019745,384.017914 398.048401,383.992920 
z"/>
<path fill="#2D6A4F" opacity="1.000000" stroke="none" 
	d="
M290.279114,476.888245 
	C293.147919,477.750580 295.598938,478.559357 298.049988,479.368134 
	C296.146881,481.201996 294.493958,483.440063 292.297333,484.799805 
	C282.723450,490.726288 272.752045,490.055573 266.370361,483.914917 
	C271.868713,476.164246 279.677094,473.810760 290.279114,476.888245 
z"/>
<path fill="#2D6A4F" opacity="1.000000" stroke="none" 
	d="
M358.429108,173.304062 
	C362.861206,171.462280 366.968750,169.812210 371.129822,168.140656 
	C373.278229,179.325821 365.045898,188.961349 351.286285,191.649460 
	C350.322723,184.355194 351.029572,177.750839 358.429108,173.304062 
z"/>
<path fill="#2D6A4F" opacity="1.000000" stroke="none" 
	d="
M269.020172,171.962036 
	C267.568268,172.908493 266.142517,173.991104 264.583344,174.824066 
	C263.650848,175.322281 262.075226,176.002182 261.546509,175.601196 
	C260.165588,174.553925 258.246429,172.932449 258.280823,171.584274 
	C258.342468,169.168762 259.175690,166.420471 260.591400,164.467178 
	C263.326050,160.694107 266.690094,157.377228 270.438110,154.176529 
	C272.432770,160.298523 273.265503,166.019135 268.989685,171.679764 
	C268.927887,172.052933 268.990173,171.993103 269.020172,171.962036 
z"/>
<path fill="#2D6A4F" opacity="1.000000" stroke="none" 
	d="
M266.923126,349.971619 
	C272.544983,348.537933 276.078339,351.798523 278.154480,356.149750 
	C278.957062,357.831787 277.457550,361.004974 276.266083,363.071838 
	C275.710846,364.034973 273.410156,364.150269 271.863556,364.328827 
	C270.804108,364.451141 269.680664,364.019592 268.267639,363.895660 
	C267.949463,363.955688 268.006744,363.998749 267.948242,363.732788 
	C266.578339,363.300751 265.266998,363.134705 263.955627,362.968658 
	C263.955627,362.968658 263.994781,363.017365 264.181213,362.725891 
	C264.927155,358.934326 265.486725,355.434296 266.046295,351.934235 
	C266.046295,351.934235 265.999786,352.001312 266.278137,351.868835 
	C266.713684,351.130219 266.870911,350.524109 267.028137,349.917969 
	C267.028137,349.917969 266.958405,349.954254 266.923126,349.971619 
z"/>
<path fill="#2D6A4F" opacity="1.000000" stroke="none" 
	d="
M443.869965,250.785522 
	C444.424866,254.063065 445.003937,257.369263 445.805847,261.947845 
	C443.977081,264.666626 441.327698,268.605408 438.304871,273.099365 
	C434.955902,260.920929 436.267365,255.777527 443.651642,251.034698 
	C443.950378,250.863770 443.894135,250.814178 443.869965,250.785522 
z"/>
<path fill="#2D6A4F" opacity="1.000000" stroke="none" 
	d="
M201.959656,59.116882 
	C202.237778,58.569809 202.515900,58.022736 202.945679,57.208824 
	C208.707123,57.242832 214.654587,55.953064 219.480301,60.259014 
	C215.227631,66.486778 209.218109,67.229324 201.194305,62.293125 
	C201.059189,61.955559 201.019684,62.019142 201.273987,61.861580 
	C201.672089,60.841637 201.815872,59.979263 201.959656,59.116882 
z"/>
<path fill="#2D6A4F" opacity="1.000000" stroke="none" 
	d="
M449.314331,319.890930 
	C449.463348,319.296051 449.926880,318.758759 450.390411,318.221436 
	C450.598053,318.696686 450.805725,319.171936 450.958252,319.852814 
	C450.478394,320.021759 450.053619,319.985107 449.314331,319.890930 
z"/>
<path fill="#2D6A4F" opacity="1.000000" stroke="none" 
	d="
M19.691185,261.872437 
	C19.959629,262.378937 19.959356,262.875000 19.958660,263.743164 
	C19.359419,263.602142 18.760601,263.089050 18.161785,262.575928 
	C18.582016,262.337982 19.002243,262.100037 19.691185,261.872437 
z"/>
<path fill="#2D6A4F" opacity="1.000000" stroke="none" 
	d="
M263.871735,44.903423 
	C263.704590,45.314674 263.338715,45.545036 262.972839,45.775398 
	C262.965271,45.415424 262.957672,45.055454 263.112549,44.528416 
	C263.407654,44.481750 263.540344,44.602146 263.871735,44.903423 
z"/>
<path fill="#2D6A4F" opacity="1.000000" stroke="none" 
	d="
M253.142715,323.491760 
	C253.093063,323.151520 253.226135,322.925049 253.359192,322.698578 
	C253.347946,323.000916 253.336700,323.303223 253.142715,323.491760 
z"/>
<path fill="#2D6A4F" opacity="1.000000" stroke="none" 
	d="
M249.209305,194.053101 
	C249.243286,193.918640 249.565964,193.749908 249.979401,193.748306 
	C249.879471,193.949890 249.688736,193.984344 249.209305,194.053101 
z"/>
</svg>