<svg width="32" height="42" viewBox="0 0 32 42" fill="none" xmlns="http://www.w3.org/2000/svg">
  <!-- Marker pin shape -->
  <path d="M16 0C7.163 0 0 7.163 0 16C0 24.837 16 42 16 42C16 42 32 24.837 32 16C32 7.163 24.837 0 16 0Z" fill="#22c55e"/>

  <!-- White circle background for leaf -->
  <circle cx="16" cy="14" r="10" fill="white"/>

  <!-- Leaf icon -->
  <path d="M16 8C13.5 8 11 9.5 11 12.5C11 15.5 13 17.5 15 18.5C14 19 13 20 13 21C13 22.5 14.5 23.5 16 23.5C17.5 23.5 19 22.5 19 21C19 20 18 19 17 18.5C19 17.5 21 15.5 21 12.5C21 9.5 18.5 8 16 8Z" fill="#22c55e"/>

  <!-- Leaf vein -->
  <line x1="16" y1="10" x2="16" y2="20" stroke="#16a34a" stroke-width="0.8"/>
</svg>
