<?xml version="1.0" standalone="no"?>
<!DOCTYPE svg PUBLIC "-//W3C//DTD SVG 20010904//EN"
 "http://www.w3.org/TR/2001/REC-SVG-20010904/DTD/svg10.dtd">
<svg version="1.0" xmlns="http://www.w3.org/2000/svg"
 width="1967.000000pt" height="233.000000pt" viewBox="0 0 1967.000000 233.000000"
 preserveAspectRatio="xMidYMid meet">

<g transform="translate(0.000000,233.000000) scale(0.100000,-0.100000)"
fill="#0a6a1d" stroke="none">
<path d="M1767 2318 c-16 -12 -17 -90 -15 -1158 l3 -1145 39 -3 c45 -4 63 12
104 91 22 43 27 65 27 128 0 69 -4 81 -38 138 -20 34 -37 64 -37 67 0 2 12 2
28 -2 45 -10 133 -73 193 -137 44 -47 63 -60 85 -60 35 1 57 6 64 15 9 11 200
84 290 111 74 22 108 30 218 53 25 5 21 24 -5 24 -46 0 -103 43 -148 110 -25
38 -45 75 -45 81 0 8 24 10 88 7 68 -4 99 -11 139 -32 54 -27 128 -107 139
-151 5 -21 11 -22 97 -23 109 -1 131 -4 217 -31 93 -29 250 -134 250 -167 0
-21 -114 -102 -197 -141 -40 -18 -76 -33 -80 -32 -4 1 -10 0 -13 -1 -27 -12
-159 -17 -205 -8 -16 4 -43 9 -60 12 -29 6 -39 10 -95 34 -186 81 -266 104
-385 109 -81 4 -128 1 -179 -11 -80 -19 -244 -101 -301 -151 l-40 -35 845 2
845 3 3 367 2 368 -587 2 -588 3 -5 780 -5 780 -30 6 c-16 4 -159 7 -316 8
-214 1 -289 -2 -302 -11z"/>
<path d="M5738 2305 c-17 -22 -18 -93 -18 -1138 l0 -1114 23 -21 c23 -22 30
-22 234 -20 140 1 216 5 226 13 27 19 36 92 33 255 -2 92 1 160 7 167 13 18
52 16 67 -2 15 -18 5 -49 -13 -42 -8 3 -20 1 -28 -4 -11 -7 -10 -12 8 -31 l22
-22 26 28 c14 15 25 37 25 49 0 34 -11 67 -21 62 -4 -3 -17 4 -28 16 -19 21
-22 21 -39 6 -10 -9 -20 -17 -23 -17 -2 0 -4 126 -4 280 l0 280 45 -6 c124
-16 246 -69 405 -174 61 -40 112 -77 113 -81 2 -5 8 -9 13 -9 6 0 35 -16 65
-35 72 -46 132 -67 156 -54 10 5 18 14 18 19 0 13 65 50 97 56 15 2 42 7 59
10 18 3 34 2 37 -3 9 -15 -23 -116 -44 -137 -18 -19 -17 -21 43 -85 60 -64
112 -102 153 -108 43 -7 48 -12 42 -51 -12 -85 -44 -113 -178 -156 -24 -8 -75
-26 -114 -40 -52 -19 -90 -26 -146 -26 l-76 0 -7 -38 c-3 -20 -6 -56 -6 -80
l0 -42 485 2 485 3 25 27 25 27 0 1099 0 1098 -28 32 -29 32 -233 0 -233 0
-23 -27 -24 -28 2 -658 c2 -361 2 -657 1 -657 0 0 -29 33 -63 73 -34 39 -82
95 -107 123 -24 29 -52 62 -61 75 -9 12 -23 30 -31 39 -14 14 -32 35 -111 130
-8 10 -31 38 -52 61 -20 24 -78 94 -128 154 -51 61 -104 124 -118 141 -15 17
-40 48 -57 68 -97 124 -404 473 -423 481 -12 5 -22 13 -22 17 0 5 -98 8 -217
8 l-218 -1 -17 -24z"/>
<path d="M10825 2324 c-11 -3 -58 -14 -105 -25 -213 -52 -389 -180 -483 -350
-59 -106 -72 -162 -72 -324 0 -161 5 -185 70 -312 67 -134 265 -281 460 -343
22 -7 44 -16 49 -21 6 -5 18 -9 28 -9 24 0 23 -4 -11 -64 -16 -28 -36 -62 -43
-76 -43 -78 -76 -120 -120 -153 -73 -54 -100 -51 -167 19 l-54 55 -36 -39
c-20 -22 -47 -52 -60 -68 -87 -102 -131 -153 -163 -187 -40 -41 -44 -47 -29
-47 5 0 40 -30 78 -66 137 -134 285 -214 512 -277 64 -18 104 -21 261 -22 163
0 195 3 270 23 110 30 252 99 322 156 135 110 229 275 243 429 4 42 11 77 16
77 5 0 9 14 9 30 0 17 -4 30 -10 30 -5 0 -10 7 -10 15 0 8 6 15 13 15 9 0 9 2
0 8 -7 4 -16 32 -21 62 -11 63 -44 156 -61 173 -6 6 -11 16 -11 22 0 5 -12 24
-26 40 -14 17 -33 39 -43 50 -62 75 -251 182 -408 230 -43 13 -98 30 -123 39
-25 9 -92 32 -150 52 -58 19 -117 44 -132 55 -15 10 -31 19 -36 19 -5 0 -18
10 -29 23 -93 101 -60 230 75 294 49 23 62 25 165 21 79 -3 124 -10 152 -22
106 -48 152 -76 218 -130 l70 -59 30 34 c16 19 77 85 136 148 58 63 110 120
114 128 19 32 -164 188 -293 249 -163 77 -237 95 -420 99 -85 2 -164 2 -175
-1z m173 -1116 c84 -41 169 -115 185 -161 2 -6 20 1 42 16 21 14 42 24 47 21
14 -9 9 -61 -7 -74 -22 -18 -19 -28 20 -66 19 -18 35 -39 35 -46 0 -7 14 -27
30 -45 17 -18 30 -37 30 -42 0 -6 6 -11 13 -11 18 0 87 -93 87 -118 0 -19 -3
-20 -25 -12 -16 6 -25 6 -25 -1 0 -5 7 -12 15 -15 37 -14 4 -73 -40 -74 -30 0
-45 -19 -45 -57 0 -18 -5 -33 -11 -33 -7 0 -9 -11 -5 -30 8 -44 -11 -39 -52
14 -16 20 -22 42 -22 77 0 48 0 48 -37 54 -21 4 -48 10 -61 15 -17 8 -27 5
-42 -10 -11 -11 -20 -26 -20 -32 -4 -122 -15 -204 -35 -263 -29 -86 -42 -111
-81 -153 -31 -33 -31 -33 -38 -10 -3 13 -6 35 -6 49 0 39 -57 135 -108 185
-26 24 -50 44 -53 44 -4 0 -55 28 -114 61 l-107 62 75 24 c94 29 161 87 214
181 20 37 41 68 45 70 4 2 8 8 8 13 0 17 43 69 57 69 8 0 -2 16 -22 35 -19 20
-35 42 -35 50 0 8 -11 22 -25 31 -72 47 30 41 107 -6 58 -36 85 -32 64 8 -25
48 -88 101 -144 122 -66 25 -184 32 -231 13 -72 -28 -85 -2 -18 36 57 34 97
41 200 36 65 -3 99 -10 135 -27z"/>
<path d="M11170 861 c0 -17 26 -30 48 -24 18 4 20 8 11 19 -13 15 -59 19 -59
5z"/>
<path d="M16220 2323 c-518 -103 -856 -484 -911 -1028 -28 -271 42 -560 189
-784 156 -238 389 -394 695 -468 114 -28 365 -25 482 6 154 39 330 132 426
223 38 36 106 118 132 159 l17 25 -113 81 c-61 44 -141 99 -177 123 -36 24
-94 66 -130 94 -72 55 -75 63 28 -74 32 -42 42 -64 42 -93 0 -37 0 -38 -22
-23 -28 20 -38 20 -38 1 0 -9 11 -20 25 -25 31 -12 31 -24 0 -55 -27 -28 -68
-32 -138 -13 -24 6 -55 8 -70 4 -35 -8 -77 -73 -70 -108 3 -14 -2 -39 -11 -55
-8 -17 -13 -39 -10 -50 3 -11 -2 -38 -12 -59 -10 -21 -19 -56 -20 -77 -1 -21
-11 -48 -21 -59 -17 -19 -26 -20 -128 -15 -193 9 -327 48 -485 141 -83 49
-160 117 -184 164 -55 105 -11 222 84 222 24 0 43 7 55 20 12 13 31 20 55 20
24 0 43 7 55 20 10 11 30 20 45 20 18 0 33 8 44 24 8 14 26 28 38 31 13 4 31
14 40 22 14 12 23 13 49 4 58 -20 121 -14 154 15 20 17 24 23 10 18 -59 -23
-195 -11 -195 17 0 14 73 59 114 70 22 6 52 24 68 41 19 20 35 29 47 25 11 -3
29 2 40 9 11 8 35 14 53 13 18 -1 43 1 55 5 13 4 32 2 45 -6 13 -7 34 -14 48
-15 13 -1 31 -10 40 -21 24 -29 70 -55 70 -40 0 39 -24 90 -48 105 -15 9 -32
23 -39 30 -18 22 -121 42 -203 39 -79 -3 -162 -33 -188 -68 -7 -10 -21 -18
-31 -18 -10 0 -38 -16 -63 -35 -103 -80 -187 -45 -249 105 -21 49 -23 72 -24
195 0 156 11 205 72 333 60 127 201 243 328 270 98 21 131 22 215 8 122 -22
232 -79 322 -167 l71 -69 91 97 c50 53 98 104 106 113 8 9 46 48 83 87 l68 71
-70 68 c-139 133 -270 206 -486 271 -50 15 -409 28 -465 16z"/>
<path d="M17390 1170 l0 -1160 419 0 c402 0 420 1 426 19 5 17 -8 97 -17 106
-2 2 -33 -5 -68 -17 -60 -19 -290 -39 -290 -25 0 3 20 43 45 88 24 46 45 90
45 97 0 8 -16 12 -46 12 -99 0 -174 39 -174 90 0 10 -10 20 -23 24 -12 3 -33
15 -46 27 -18 17 -22 29 -19 63 4 35 0 45 -24 68 -33 31 -37 75 -9 109 18 22
18 25 3 42 -9 10 -16 34 -16 54 0 28 7 42 31 62 25 22 29 32 26 61 -6 49 26
90 71 90 30 0 33 3 33 32 0 22 8 38 28 56 24 20 36 23 71 18 37 -5 44 -3 49
14 9 27 61 53 91 46 14 -4 34 -16 45 -27 19 -19 22 -19 38 -5 20 18 63 21 93
5 31 -16 48 -71 55 -174 l6 -94 51 -6 c72 -9 168 -58 210 -106 19 -22 36 -37
39 -32 16 27 15 75 -3 138 -41 141 -18 215 67 215 52 0 76 -20 112 -90 36 -71
36 -70 15 -70 -13 0 -15 -7 -10 -35 20 -113 20 -106 -3 -112 -25 -6 -25 -4 4
-108 25 -89 17 -207 -18 -267 -35 -61 -88 -105 -167 -140 -36 -16 -72 -33 -80
-37 -8 -4 -23 -24 -33 -44 -18 -35 -18 -37 3 -76 15 -30 27 -41 43 -41 12 0
32 -7 44 -15 19 -13 95 -15 578 -13 l556 3 -282 380 c-155 209 -367 494 -470
633 -104 138 -189 257 -189 262 0 6 109 133 242 283 134 149 255 286 269 302
274 311 347 394 366 415 13 14 23 28 23 32 0 5 -159 8 -354 8 l-354 0 -93
-107 c-51 -60 -96 -110 -99 -113 -3 -3 -53 -59 -110 -125 -108 -124 -147 -168
-190 -215 -14 -15 -34 -39 -45 -53 -11 -13 -54 -64 -95 -111 l-75 -86 -3 405
-2 405 -395 0 -395 0 0 -1160z"/>
<path d="M10 1166 l0 -1156 298 2 297 3 3 426 2 427 238 4 c222 5 243 7 327
32 105 32 211 82 276 130 99 74 199 238 224 370 19 99 19 281 0 371 -19 90
-79 214 -138 287 -85 103 -247 192 -427 234 -64 15 -147 18 -587 21 l-513 5 0
-1156z m1200 776 c0 -264 -85 -507 -225 -647 -106 -106 -203 -151 -390 -180
-146 -24 -201 -53 -258 -140 -53 -81 -71 -194 -109 -680 l-13 -170 -6 190
c-10 314 -10 521 2 577 15 74 70 185 131 265 101 133 212 252 314 339 57 48
104 89 104 90 0 7 -118 -51 -166 -81 -70 -45 -198 -168 -249 -239 -22 -30 -44
-54 -50 -52 -6 2 -10 46 -9 107 0 77 6 122 22 176 28 90 104 205 183 277 139
125 430 228 667 235 l52 1 0 -68z"/>
<path d="M8042 2308 c-9 -9 -12 -98 -12 -338 0 -240 3 -329 12 -338 9 -9 96
-12 329 -12 284 0 318 -2 323 -16 4 -9 6 -291 6 -626 -1 -336 1 -612 3 -615 3
-2 32 5 65 16 34 12 68 18 76 15 9 -3 16 -1 16 4 0 6 21 10 49 10 69 -2 98 30
72 80 -32 62 -66 176 -69 234 -3 54 0 76 18 113 12 25 26 45 31 45 5 0 19 10
30 21 18 18 30 21 78 17 70 -5 103 -28 130 -88 22 -51 53 -84 94 -99 19 -7 27
-17 25 -29 -3 -14 -13 -17 -63 -15 -159 5 -175 0 -175 -48 0 -38 19 -76 70
-134 22 -25 43 -57 46 -71 3 -13 10 -24 15 -24 12 0 39 -97 39 -142 0 -50 -19
-128 -32 -128 -5 0 -6 -5 -3 -10 3 -6 1 -10 -5 -10 -6 0 -9 -4 -6 -9 3 -4 -10
-26 -29 -49 -19 -22 -35 -42 -35 -45 0 -3 49 -6 109 -6 80 -1 111 2 120 12 8
10 12 236 13 803 l3 789 321 3 322 2 15 23 c12 19 15 75 16 325 1 264 -1 305
-15 327 l-16 25 -987 0 c-754 0 -990 -3 -999 -12z"/>
<path d="M12030 1166 l0 -1156 298 2 297 3 3 428 2 427 198 0 c108 0 226 5
262 11 89 14 247 69 316 110 151 90 265 261 294 443 16 99 8 311 -15 386 -63
204 -200 351 -402 428 -163 63 -179 65 -740 69 l-513 5 0 -1156z m1200 776 c0
-264 -85 -507 -225 -647 -106 -106 -203 -151 -390 -180 -146 -24 -201 -54
-258 -140 -54 -84 -70 -184 -109 -680 l-13 -170 -6 185 c-10 305 -10 526 2
582 15 74 70 185 131 265 101 133 212 252 314 339 57 48 104 89 104 91 0 7
-113 -48 -164 -81 -72 -46 -200 -168 -251 -240 -22 -30 -44 -54 -50 -52 -16 5
-17 148 -1 227 37 178 168 342 343 431 156 79 357 132 521 137 l52 1 0 -68z"/>
<path d="M4615 2128 c-38 -95 -78 -195 -91 -223 -42 -95 -57 -130 -59 -140 -3
-11 -151 -378 -166 -410 -5 -11 -43 -103 -85 -205 -42 -102 -84 -203 -93 -225
-10 -22 -28 -65 -39 -95 -22 -57 -63 -158 -162 -395 -122 -296 -170 -414 -170
-419 0 -3 153 -6 340 -6 187 0 340 3 340 8 0 4 -22 29 -49 55 -98 98 -148 236
-137 386 3 46 10 89 15 94 6 6 34 -3 77 -24 37 -18 79 -35 92 -37 14 -2 33 -7
42 -12 21 -11 136 31 169 61 12 11 34 46 50 77 30 57 62 98 101 125 17 12 19
18 9 46 -12 35 5 71 24 52 7 -7 17 -7 30 0 13 8 22 8 30 0 6 -6 19 -11 29 -11
10 0 23 -11 30 -25 6 -13 14 -22 19 -20 8 6 21 -27 17 -43 -2 -5 -1 -10 2 -9
14 2 50 -25 50 -38 0 -7 -10 -15 -22 -17 -20 -3 -23 -8 -20 -38 2 -27 -3 -41
-19 -55 -11 -11 -23 -19 -25 -17 -13 8 -11 -3 7 -45 11 -27 23 -61 26 -78 8
-53 10 -176 2 -181 -5 -2 -6 -10 -3 -17 8 -23 -45 -127 -91 -176 -25 -26 -42
-51 -38 -54 10 -10 741 -8 747 2 3 5 -42 127 -100 272 -59 145 -131 327 -161
404 -58 151 -211 536 -299 755 -30 74 -54 138 -54 143 0 4 -9 26 -19 50 -22
47 -168 410 -226 560 -21 53 -41 97 -45 97 -4 0 -37 -78 -75 -172z"/>
<path d="M14385 2128 c-38 -95 -78 -195 -91 -223 -42 -95 -57 -130 -59 -140
-3 -11 -151 -378 -166 -410 -5 -11 -43 -103 -85 -205 -42 -102 -84 -203 -93
-225 -10 -22 -28 -65 -39 -95 -22 -57 -63 -158 -162 -395 -122 -296 -170 -414
-170 -419 0 -3 153 -6 340 -6 187 0 340 3 340 8 0 4 -22 29 -49 55 -98 98
-148 236 -137 386 3 46 10 89 15 94 6 6 34 -3 77 -24 37 -18 79 -35 92 -37 14
-2 33 -7 42 -12 21 -11 136 31 169 61 12 11 34 46 50 77 30 57 62 98 101 125
17 12 19 18 9 46 -12 35 5 71 24 52 7 -7 17 -7 30 0 13 8 22 8 30 0 6 -6 19
-11 29 -11 10 0 23 -11 30 -25 6 -13 14 -22 19 -20 8 6 21 -27 17 -43 -2 -5
-1 -10 2 -9 14 2 50 -25 50 -38 0 -7 -10 -15 -22 -17 -20 -3 -23 -8 -20 -38 2
-27 -3 -41 -19 -55 -11 -11 -23 -19 -25 -17 -13 8 -11 -3 7 -45 11 -27 23 -61
26 -78 8 -53 10 -176 2 -181 -5 -2 -6 -10 -3 -17 8 -23 -45 -127 -91 -176 -25
-26 -42 -51 -38 -54 10 -10 741 -8 747 2 3 5 -42 127 -100 272 -59 145 -131
327 -161 404 -58 151 -211 536 -299 755 -30 74 -54 138 -54 143 0 4 -9 26 -19
50 -22 47 -168 410 -226 560 -21 53 -41 97 -45 97 -4 0 -37 -78 -75 -172z"/>
<path d="M18661 897 c-9 -11 -12 -30 -8 -53 12 -71 29 -59 25 17 -3 46 -5 50
-17 36z"/>
<path d="M9095 830 c-3 -5 3 -10 14 -10 12 0 21 5 21 10 0 6 -6 10 -14 10 -8
0 -18 -4 -21 -10z"/>
<path d="M16575 770 c-10 -16 14 -40 40 -40 29 0 36 9 24 31 -10 20 -54 26
-64 9z"/>
<path d="M7130 514 c-25 -29 25 -61 59 -38 17 12 19 18 9 28 -20 20 -56 25
-68 10z"/>
<path d="M3184 276 c-6 -16 12 -56 25 -56 16 0 43 40 38 55 -8 19 -56 20 -63
1z"/>
<path d="M8948 165 c-40 -40 -115 -68 -188 -70 -68 -3 -66 -1 -62 -54 3 -35
33 -32 126 13 97 48 140 80 151 115 8 27 3 27 -27 -4z"/>
<path d="M18305 136 c-9 -14 -15 -39 -13 -57 2 -26 9 -34 33 -42 17 -6 33 -15
37 -21 5 -8 10 -8 18 0 8 8 2 30 -19 77 -17 37 -32 67 -35 67 -3 0 -13 -11
-21 -24z"/>
</g>
</svg>
