<?xml version="1.0" encoding="utf-8"?>
<svg xmlns="http://www.w3.org/2000/svg" viewBox="50.12 37.397 185.161 121.254">
  <path fill-rule="evenodd" clip-rule="evenodd" d="M 178.292 39.664 C 176.974 42.126 176.725 48.586 177.877 50.449 C 178.293 51.122 180.042 52.327 181.763 53.127 L 184.893 54.581 L 181.799 54.084 C 180.098 53.811 175.148 54.221 170.799 54.996 C 160.084 56.906 140.995 56.827 126.694 54.814 C 105.533 51.836 97.993 52.873 91.71 59.628 C 87.74 63.895 87.062 67.389 86.403 86.975 C 85.787 105.28 85.661 106.165 82.969 111.161 L 80.175 116.348 L 82.139 122.411 C 83.219 125.746 83.903 128.475 83.659 128.475 C 83.414 128.475 81.306 126.511 78.972 124.11 C 73.984 118.977 66.052 115.648 56.738 114.778 L 50.451 114.191 L 51.283 117.092 C 52.653 121.869 57.185 130.168 60.46 133.898 C 64.506 138.506 72.771 142.452 79.924 143.19 L 85.688 143.785 L 85 141.047 C 82.852 132.487 71.659 121.958 62.644 120.016 C 60.153 119.48 59.515 119.626 59.91 120.646 C 60.531 122.251 66.857 126.721 69.786 127.625 C 71.639 128.197 71.569 128.288 69.202 128.375 C 65.718 128.504 64.434 130.475 67.834 130.475 C 69.241 130.475 70.393 130.925 70.393 131.475 C 70.393 132.025 71.71 132.475 73.32 132.475 C 75.484 132.475 77.056 133.452 79.35 136.225 C 82.253 139.734 82.322 139.996 80.42 140.295 C 79.301 140.471 75.975 139.914 73.028 139.057 C 69.059 137.903 66.614 136.354 63.594 133.078 C 60.067 129.251 54.393 119.874 54.393 117.871 C 54.393 117.502 56.901 117.494 59.967 117.855 C 70.356 119.076 80.638 126.142 85.375 135.317 C 86.982 138.429 88.316 140.75 88.339 140.475 C 88.362 140.2 87.957 137.384 87.438 134.218 C 86.716 129.807 86.823 127.703 87.896 125.218 C 89.159 122.29 89.279 123.651 89.125 139.225 L 88.954 156.475 L 85.924 156.49 C 83.102 156.505 78.678 158.316 80.893 158.55 C 81.705 158.636 204.948 158.588 207.702 158.501 C 208.147 158.487 208.233 158.025 207.893 157.475 C 207.553 156.925 205.246 156.475 202.767 156.475 C 198.558 156.475 198.303 156.326 198.934 154.225 C 199.306 152.987 201.059 150.4 202.83 148.475 C 204.715 146.426 206.121 143.774 206.223 142.076 C 206.318 140.482 206.898 138.572 207.512 137.832 C 208.645 136.466 208.983 128.732 207.954 127.703 C 207.406 127.155 206.997 131.49 207.316 134.475 C 207.459 135.808 207.362 135.808 206.45 134.475 C 204.916 132.233 205.183 128.828 207.038 126.973 C 208.367 125.644 208.845 125.582 209.523 126.651 C 210.829 128.711 210.493 132.495 208.49 138.295 C 206.361 144.459 207.14 144.036 210.843 137.014 C 213.387 132.189 213.509 130.47 211.751 124.225 C 211.082 121.85 207.139 121.994 204.893 124.475 C 203.898 125.575 202.59 126.461 201.988 126.443 C 200.223 126.392 195.622 121.907 195.234 119.858 C 194.988 118.564 193.868 117.877 191.651 117.663 L 188.425 117.351 L 190.408 114.663 C 191.498 113.185 193.953 108.375 195.862 103.975 C 199.111 96.487 199.558 95.937 202.859 95.383 C 207.414 94.618 210.393 91.874 210.393 88.442 C 210.393 86.945 211.115 83.992 211.996 81.882 C 212.878 79.771 213.891 75.104 214.246 71.512 L 214.893 64.979 L 218.665 65.306 C 221.858 65.582 222.969 65.099 225.915 62.153 C 227.828 60.24 229.393 58.217 229.393 57.658 C 229.393 56.241 220.843 53.114 218.673 53.737 C 217.694 54.018 215.993 54.61 214.893 55.052 C 213.69 55.535 214.388 54.437 216.643 52.297 C 219.742 49.357 220.387 48.064 220.361 44.857 C 220.328 40.794 218.554 37.475 216.416 37.475 C 215.666 37.475 215.364 38.255 215.666 39.41 C 216.237 41.596 214.212 44.967 211.432 46.454 C 210.116 47.158 208.536 47.015 206.016 45.962 C 201.433 44.047 195.089 44.064 191.343 46.001 C 188.723 47.356 188.071 47.36 185.514 46.038 C 182.525 44.492 181.393 42.667 181.393 39.393 C 181.393 36.818 179.737 36.963 178.292 39.664 Z M 186.467 49.475 C 186.942 49.475 187.071 50.15 186.755 50.975 C 186.438 51.8 185.694 52.475 185.1 52.475 C 183.136 52.475 179.393 48.163 179.393 45.899 C 179.393 43.742 179.489 43.763 182.499 46.574 C 184.207 48.169 185.993 49.475 186.467 49.475 Z M 216.818 49.557 C 214.99 51.577 211.9 52.105 210.946 50.56 C 210.635 50.057 211.958 48.671 213.887 47.479 C 215.815 46.287 217.454 44.786 217.529 44.143 C 217.604 43.501 217.865 44.025 218.11 45.307 C 218.367 46.659 217.824 48.447 216.818 49.557 Z M 205.353 48.111 C 209.684 50.669 211.663 55.006 212.181 63.069 C 212.717 71.424 211.871 78.439 210.023 80.967 C 208.919 82.477 208.396 82.547 206.363 81.459 C 202.958 79.637 193.991 79.853 190.974 81.83 L 188.469 83.471 L 186.931 78.292 C 184.885 71.402 184.941 59.645 187.044 54.389 C 189.898 47.257 198.763 44.218 205.353 48.111 Z M 129.393 57.455 C 133.518 58.051 143.875 58.464 152.409 58.373 L 167.925 58.207 L 171.687 61.969 C 175.08 65.362 175.838 65.679 179.421 65.198 L 183.393 64.665 L 183.426 69.82 C 183.444 72.655 184.329 77.45 185.393 80.475 C 186.457 83.5 187.342 87.008 187.36 88.27 C 187.401 91.131 191.614 95.475 194.348 95.475 C 196.817 95.475 196.805 94.965 194.496 101.675 C 190.838 112.308 184.491 119.461 178.706 119.471 C 176.979 119.474 176.444 118.792 176.158 116.225 C 175.717 112.271 175.152 113.51 172.872 123.436 C 171.66 128.712 171.485 131.006 172.276 131.269 C 172.89 131.474 173.393 132.334 173.393 133.181 C 173.393 134.375 173.084 134.464 172.015 133.576 C 170.164 132.04 169.424 134.919 169.407 143.725 L 169.393 150.475 L 166.412 150.475 C 162.553 150.475 161.796 147.723 163.293 139.128 C 164.205 133.891 164.133 131.988 162.886 128.456 C 161.544 124.651 161.541 123.969 162.857 122.515 C 164.55 120.644 166.845 106.527 165.65 105.332 C 164.223 103.905 153.046 107.178 150.907 109.649 C 149.086 111.753 148.109 111.964 140.696 111.858 C 133.424 111.755 132.15 111.449 129.416 109.148 C 126.555 106.741 123.677 105.798 117.393 105.209 C 115.429 105.025 114.935 105.404 115.089 106.975 C 115.721 113.401 115.476 118.515 114.343 122.572 C 113.285 126.361 113.307 129.086 114.466 138.072 C 115.24 144.069 115.877 149.425 115.883 149.975 C 115.897 151.333 110.237 150.841 109.351 149.407 C 108.962 148.777 108.354 145.802 108.001 142.795 C 107.193 135.918 105.237 131.201 101.37 126.796 C 98.635 123.681 98.401 122.891 98.961 118.661 C 99.49 114.662 98.975 112.455 95.447 103.606 C 88.448 86.046 86.905 75.943 89.919 67.4 C 93.23 58.017 98.777 55.173 112.393 55.879 C 117.618 56.15 125.268 56.859 129.393 57.455 Z M 181.295 56.591 C 185.172 57.942 185.087 60.376 181.096 62.289 C 178.68 63.447 177.918 63.382 175.188 61.787 C 171.018 59.352 170.706 57.889 174.093 56.654 C 177.788 55.306 177.615 55.308 181.295 56.591 Z M 225.222 57.947 C 226.317 58.984 226.074 59.581 223.837 61.34 C 219.33 64.886 213.929 63.758 214.556 59.403 C 215.097 55.642 221.816 54.725 225.222 57.947 Z M 99.982 66.331 C 99.067 67.812 97.425 72.475 97.819 72.475 C 98.026 72.475 99.125 70.9 100.26 68.975 C 101.396 67.05 101.917 65.475 101.418 65.475 C 100.919 65.475 100.273 65.86 99.982 66.331 Z M 188.393 66.475 C 188.393 67.025 189.068 67.475 189.893 67.475 C 190.718 67.475 191.393 67.025 191.393 66.475 C 191.393 65.925 190.718 65.475 189.893 65.475 C 189.068 65.475 188.393 65.925 188.393 66.475 Z M 206.393 66.475 C 206.393 67.025 207.068 67.475 207.893 67.475 C 208.718 67.475 209.393 67.025 209.393 66.475 C 209.393 65.925 208.718 65.475 207.893 65.475 C 207.068 65.475 206.393 65.925 206.393 66.475 Z M 206.17 84.032 C 207.411 84.901 208.393 86.642 208.393 87.975 C 208.393 91.406 204.819 93.475 198.893 93.475 C 190.206 93.475 186.615 88.805 192.028 84.548 C 195.247 82.016 202.894 81.737 206.17 84.032 Z M 192.611 87.629 C 193.13 89.187 195.367 89.459 195.446 87.975 C 195.475 87.425 194.748 86.82 193.831 86.629 C 192.788 86.414 192.331 86.788 192.611 87.629 Z M 203.06 87.142 C 201.909 88.292 202.331 89.475 203.893 89.475 C 204.718 89.475 205.393 88.8 205.393 87.975 C 205.393 86.413 204.21 85.991 203.06 87.142 Z M 93.506 103.975 C 96.221 110.434 96.821 113.089 96.622 117.757 C 96.484 120.984 96.952 124.74 97.681 126.257 C 98.592 128.154 98.869 132.224 98.599 139.725 L 98.211 150.475 L 94.802 150.475 L 91.393 150.475 L 91.429 136.225 C 91.45 127.73 92.019 119.656 92.837 116.232 C 93.592 113.073 93.939 109.473 93.608 108.232 C 93.006 105.976 93.006 105.976 92.299 108.475 C 91.649 110.774 91.584 110.799 91.493 108.784 C 91.438 107.579 90.942 106.314 90.39 105.973 C 89.763 105.586 89.466 107.156 89.597 110.164 C 89.756 113.825 89.179 116.026 87.183 119.373 L 84.56 123.77 L 83.899 119.361 C 83.351 115.707 83.676 114.185 85.803 110.464 C 87.851 106.882 88.385 104.561 88.449 98.975 C 88.501 94.37 88.805 92.659 89.336 93.975 C 89.78 95.075 91.656 99.575 93.506 103.975 Z M 127.544 109.801 C 128.495 110.395 129.834 111.93 130.52 113.213 C 131.374 114.808 132.262 115.318 133.331 114.826 C 136.117 113.544 145.144 113.271 147.262 114.405 C 149.011 115.341 149.581 115.118 151.007 112.941 C 153.106 109.737 157.423 107.443 161.093 107.579 C 163.387 107.664 163.032 107.947 159.125 109.142 C 154.51 110.555 150.27 114.686 151.833 116.248 C 152.223 116.639 153.005 116.132 153.57 115.123 C 154.559 113.356 160.089 110.475 162.491 110.475 C 164.664 110.475 162.877 119.602 160.327 121.525 C 158.11 123.197 158.095 123.327 159.723 126.758 C 161.805 131.145 161.87 137.651 159.872 141.515 C 157.234 146.616 151.267 148.96 140.893 148.968 C 133.274 148.974 131.265 148.615 127.803 146.631 C 125.553 145.341 122.966 143.022 122.053 141.476 C 118.653 135.721 120.816 126.618 127.353 119.174 L 130.575 115.503 L 127.561 112.489 C 125.903 110.831 123.5 109.468 122.22 109.46 C 120.94 109.451 119.218 108.975 118.393 108.401 C 116.345 106.975 125.186 108.329 127.544 109.801 Z M 125.143 113.102 C 128.006 114.908 127.97 116.25 124.955 119.975 C 121.448 124.309 119 122.602 118.588 115.537 C 118.293 110.487 118.363 110.329 120.588 110.994 C 121.856 111.373 123.905 112.322 125.143 113.102 Z M 119.25 129.718 C 118.273 133.373 118.277 135.31 119.27 139.147 C 121.099 146.207 122.601 156.601 121.895 157.306 C 120.94 158.261 119.553 155.418 118.433 150.213 C 116.652 141.932 115.146 126.594 115.843 123.82 C 116.511 121.157 116.518 121.155 118.497 123.134 C 120.303 124.941 120.371 125.53 119.25 129.718 Z M 178.048 122.241 C 178.855 122.754 178.479 123.88 176.803 125.975 C 174.595 128.735 174.403 128.801 174.398 126.807 C 174.392 124.224 175.352 121.469 176.25 121.49 C 176.604 121.499 177.413 121.836 178.048 122.241 Z M 197.094 125.373 C 203.947 130.338 206.49 140.54 202.225 145.961 C 197.898 151.462 189.296 152.976 181.776 149.561 C 176.661 147.239 174.393 144.11 174.393 139.378 C 174.393 135.128 178.392 127.407 182.108 124.485 C 185.987 121.433 192.161 121.8 197.094 125.373 Z M 164.472 126.058 C 164.52 127.223 164.757 127.46 165.076 126.663 C 165.365 125.941 165.329 125.078 164.997 124.746 C 164.665 124.414 164.429 125.004 164.472 126.058 Z M 131.393 129.975 C 131.393 130.892 131.877 131.48 132.468 131.283 C 133.059 131.086 133.543 130.497 133.543 129.975 C 133.543 129.453 133.059 128.864 132.468 128.667 C 131.877 128.47 131.393 129.058 131.393 129.975 Z M 147.936 129.406 C 147.253 130.511 148.83 131.705 149.754 130.781 C 150.704 129.83 150.527 128.475 149.452 128.475 C 148.934 128.475 148.252 128.894 147.936 129.406 Z M 182.393 130.034 C 182.393 130.891 182.843 131.315 183.393 130.975 C 183.943 130.635 184.393 129.934 184.393 129.416 C 184.393 128.898 183.943 128.475 183.393 128.475 C 182.843 128.475 182.393 129.177 182.393 130.034 Z M 193.087 129.114 C 192.288 129.913 193.191 131.475 194.452 131.475 C 194.97 131.475 195.393 130.8 195.393 129.975 C 195.393 128.429 194.213 127.988 193.087 129.114 Z M 74.835 130.382 C 75.144 130.88 74.495 131.053 73.394 130.765 C 71.059 130.154 70.764 129.475 72.834 129.475 C 73.627 129.475 74.527 129.883 74.835 130.382 Z M 106.899 147.186 C 107.668 151.935 108.067 156.193 107.786 156.648 C 106.946 158.008 103.647 157.586 101.964 155.904 C 100.722 154.661 100.393 151.975 100.393 143.07 C 100.393 136.876 100.731 131.469 101.143 131.054 C 102.435 129.756 105.442 138.183 106.899 147.186 Z M 135.028 133.548 C 131.501 136.322 131.447 140.809 134.913 143.08 C 137.762 144.947 145.34 144.594 147.892 142.475 C 152.155 138.938 147.407 131.475 140.893 131.475 C 139.116 131.475 136.477 132.408 135.028 133.548 Z M 186.593 132.675 C 184.859 134.409 185.108 135.907 187.488 138.061 C 189.554 139.93 189.611 139.924 191.503 137.587 C 193.081 135.639 193.197 134.944 192.158 133.69 C 191.031 132.33 190.858 132.344 190.57 133.819 C 190.392 134.73 189.799 135.475 189.252 135.475 C 188.706 135.475 188.544 134.575 188.893 133.475 C 189.601 131.246 188.43 130.838 186.593 132.675 Z M 218.772 132.912 C 214.448 134.793 206.362 146.111 208.1 147.848 C 208.444 148.193 211.031 148.475 213.848 148.475 C 221.213 148.475 227.001 145.247 231.638 138.554 C 233.703 135.573 235.393 132.76 235.393 132.304 C 235.393 130.953 222.16 131.437 218.772 132.912 Z M 145.643 135.205 C 147.649 135.782 147.984 139.484 146.193 141.275 C 144.276 143.192 137.946 142.743 135.96 140.549 C 134.023 138.409 134.168 135.382 136.24 134.692 C 137.288 134.343 137.354 134.68 136.537 136.206 C 135.785 137.611 135.814 138.496 136.64 139.322 C 138.532 141.214 139.504 140.63 138.151 138.414 C 137.076 136.652 137.179 136.141 138.864 134.892 C 139.949 134.088 141.524 133.717 142.364 134.066 C 143.205 134.416 144.681 134.928 145.643 135.205 Z M 230.303 135.725 C 227.16 141.821 222.503 144.882 214.893 145.854 L 209.893 146.493 L 214.393 144.029 C 216.868 142.674 220.131 141.545 221.643 141.52 C 223.155 141.495 224.393 141.025 224.393 140.475 C 224.393 139.925 223.943 139.475 223.393 139.475 C 221.236 139.475 222.585 137.891 226.148 136.239 L 229.893 134.503 L 225.893 135.078 C 223.693 135.395 221.351 136.102 220.689 136.649 C 220.026 137.196 217.903 138.45 215.97 139.436 C 212.662 141.122 212.51 141.125 213.389 139.482 C 214.212 137.944 217.768 135.848 222.393 134.175 C 223.218 133.877 225.596 133.597 227.678 133.554 C 231.289 133.479 231.41 133.579 230.303 135.725 Z M 143.297 138.09 C 142.137 139.488 142.211 139.656 143.842 139.34 C 144.879 139.139 145.915 138.413 146.143 137.725 C 146.737 135.941 144.883 136.179 143.297 138.09 Z M 177.4 149.475 C 178.433 149.475 180.343 155.532 179.687 156.725 C 179.02 157.939 174.723 157.583 173.653 156.225 C 173.111 155.538 172.376 152.051 172.02 148.477 L 171.372 141.98 L 173.918 145.727 C 175.319 147.789 176.886 149.475 177.4 149.475 Z M 161.393 150.975 C 161.393 156.395 161.35 156.475 158.452 156.475 C 154.71 156.475 154.36 155.777 155.949 151.475 L 157.241 147.975 L 157.317 151.784 C 157.416 156.769 159.393 155.625 159.393 150.583 C 159.393 147.267 159.978 145.475 161.06 145.475 C 161.243 145.475 161.393 147.95 161.393 150.975 Z M 126.002 150.558 C 126.062 151.887 126.448 153.763 126.859 154.725 C 127.299 155.754 127.175 156.475 126.559 156.475 C 125.166 156.475 124.785 155.689 123.959 151.12 C 123.424 148.157 123.567 147.366 124.578 147.703 C 125.301 147.944 125.942 149.229 126.002 150.558 Z M 153.085 152.479 C 151.854 155.742 149.961 156.397 149 153.893 C 147.988 151.255 148.294 150.448 150.643 149.56 C 153.817 148.361 154.384 149.039 153.085 152.479 Z M 131.819 150.447 C 134.128 151.325 134.264 151.665 133.221 153.954 C 132.133 156.34 131.958 156.392 130.229 154.827 C 129.219 153.913 128.393 152.335 128.393 151.32 C 128.393 149.178 128.446 149.165 131.819 150.447 Z M 145.893 154.475 C 145.893 156.749 145.462 157.003 141.133 157.28 C 136.146 157.6 134.495 156.257 135.776 152.92 C 136.225 151.749 137.55 151.44 141.133 151.67 C 145.462 151.947 145.893 152.201 145.893 154.475 Z M 98.208 154.725 C 98.474 156.127 97.829 156.475 94.966 156.475 C 91.569 156.475 90.266 154.936 92.106 153.096 C 93.44 151.761 97.87 152.944 98.208 154.725 Z M 116.43 154.544 C 117.457 156.463 117.297 156.589 114.223 156.294 C 112.022 156.082 110.798 155.387 110.578 154.225 C 110.084 151.617 115.007 151.885 116.43 154.544 Z M 169.393 154.475 C 169.393 155.929 168.726 156.475 166.952 156.475 C 164.318 156.475 162.899 155.083 163.893 153.475 C 164.233 152.925 165.609 152.475 166.952 152.475 C 168.726 152.475 169.393 153.021 169.393 154.475 Z M 184.393 154.475 C 184.393 155.575 183.943 156.475 183.393 156.475 C 182.843 156.475 182.393 155.575 182.393 154.475 C 182.393 153.375 182.843 152.475 183.393 152.475 C 183.943 152.475 184.393 153.375 184.393 154.475 Z M 196.672 154.516 C 196.059 156.859 194.05 156.617 193.57 154.142 C 193.356 153.038 193.915 152.475 195.226 152.475 C 196.727 152.475 197.077 152.969 196.672 154.516 Z M 191.393 154.975 C 191.393 155.808 190.504 156.475 189.393 156.475 C 188.282 156.475 187.393 155.808 187.393 154.975 C 187.393 154.142 188.282 153.475 189.393 153.475 C 190.504 153.475 191.393 154.142 191.393 154.975 Z M 29.197 208.343" fill="#1D7420" style="stroke-width: 1;"/>
</svg>