<svg xmlns="http://www.w3.org/2000/svg" viewBox="0 0 760 760"><g transform="translate(156.5,72.5)"><g transform="translate(0.000000,615.000000) scale(0.100000,-0.100000)"
fill="#083510" stroke="none">
<path d="M0 3075 l0 -3065 778 0 c742 0 780 1 795 18 16 17 17 110 17 1135 l0
1117 381 0 c649 0 937 33 1278 146 665 220 1077 702 1188 1390 26 158 25 590
-1 759 -80 517 -322 908 -731 1181 -347 231 -773 348 -1365 374 -118 5 -693
10 -1277 10 l-1063 0 0 -3065z m3180 2148 c-1 -353 -65 -780 -161 -1066 -248
-742 -725 -1123 -1524 -1217 -411 -49 -660 -269 -765 -679 -42 -165 -73 -456
-124 -1176 -15 -205 -32 -430 -41 -530 -2 -27 -7 -101 -11 -163 -4 -62 -8
-111 -10 -109 -2 2 -6 93 -9 203 -3 109 -7 282 -10 384 -9 335 -20 1012 -19
1160 2 244 32 397 115 587 126 287 481 748 865 1123 172 168 278 259 459 394
72 54 134 102 139 106 18 17 -192 -72 -315 -134 -363 -183 -713 -496 -967
-867 -26 -37 -50 -68 -54 -69 -11 0 -22 169 -21 315 4 451 191 871 521 1170
378 343 905 552 1587 629 171 19 203 22 283 24 l62 2 0 -87z"/>
</g></g></svg>